<?xml version="1.0" encoding="UTF-8"?>
<svg id="Layer_1" data-name="Layer 1" xmlns="http://www.w3.org/2000/svg" viewBox="0 0 1080 1080">
  <defs>
    <style>
      .cls-1 {
        fill: #1c4c2e;
      }
    </style>
  </defs>
  <path class="cls-1" d="m812.33,826.74c-.06.1-.12.21-.19.31-23.7-13.28-47.41-26.57-71.13-39.86-20.77,17.98-43.58,33.13-68.17,45.66-24.47,12.47-50.16,21.54-77.36,27.82,2.31-7.62,4.41-14.9,6.8-22.08.32-.96,1.95-1.8,3.13-2.11,28-7.4,54.13-19.16,78.89-34,14.05-8.41,27.38-17.78,39.67-28.27.24-.2.48-.4.71-.61,6.05-5.19,11.84-10.65,17.34-16.41,23.5,23.25,46.91,46.41,70.32,69.56Z"/>
  <path class="cls-1" d="m442.72,835.6c-28.41-7.57-54.98-19.41-79.91-34.95-20.03-12.48-38.48-27-54.92-43.53-24.25,24.26-48.41,48.43-71.71,71.75,4.21-2.47,9.45-5.62,14.75-8.65,18.64-10.65,37.32-21.24,55.94-31.92,1.56-.89,2.6-.91,3.93.33,2.2,2.05,4.51,3.99,6.85,5.87,35.27,28.35,74.77,48.55,118.16,61.19,6.33,1.84,12.76,3.34,19.62,5.12-2.26-6.74-4.62-12.73-6.21-18.92-.97-3.77-2.93-5.34-6.5-6.29Z"/>
  <path class="cls-1" d="m789.16,697.54c-2.69,4.26-5.03,8.77-7.94,12.88-5.94,8.39-12.17,16.58-18.42,25.04,3.63,6.16,7.47,12.66,11.82,20.05,13.12-18.76,25.84-36.95,39.14-55.97-8.29-1.43-15.35-2.71-22.44-3.77-.63-.1-1.68,1-2.17,1.78Z"/>
  <path class="cls-1" d="m286.95,733.9c-8.8-12.15-17.66-24.25-26.73-36.66-6.74,1.37-14.07,2.86-22.37,4.55,12.75,17.89,25.12,35.25,37.81,53.05,4.25-6.56,8.12-12.45,11.85-18.44.33-.53-.08-1.84-.56-2.5Z"/>
  <path class="cls-1" d="m335.1,387.67c-.3.38-.6.76-.89,1.15-5.54,7.05-10.51,14.23-14.97,21.43-.02.04-.05.07-.07.11-.54.87-1.08,1.74-1.61,2.62h0c-5.12,8.52-9.55,17.06-13.38,25.5.21-.49.43-.99.65-1.48.14-.31.27-.62.41-.92.3-.67.6-1.34.9-2,.19-.43.39-.86.59-1.28,0,0,.01-.02.01-.02,0-.02.02-.04.03-.06.01-.02.02-.05.03-.07.02-.04.03-.07.04-.1.02-.04.04-.07.05-.11.01,0,.01-.01.01-.01.03-.05.05-.11.08-.16.46-.99.91-1.97,1.37-2.92.03-.06.07-.13.09-.19.22-.44.43-.88.64-1.31.24-.48.47-.96.7-1.43.29-.55.56-1.1.84-1.64.45-.87.89-1.73,1.34-2.55.06-.12.12-.24.19-.35.18-.32.35-.64.53-.95.82-1.48,1.66-2.95,2.5-4.4,2.55-4.37,5.24-8.62,8.05-12.78.94-1.38,1.89-2.76,2.85-4.12.97-1.36,1.94-2.71,2.93-4.05s2-2.67,3.01-3.99c.36-.46.72-.93,1.08-1.39.66-.85,1.33-1.69,2-2.53Z"/>
  <path class="cls-1" d="m455.2,306.36c-.68.21-1.36.43-2.04.65-.26.08-.51.16-.76.24-.26.08-.52.16-.77.25-.15.05-.3.09-.45.14-.08.02-.16.05-.23.07-.85.28-1.69.56-2.52.84-.78.26-1.55.53-2.32.8-.76.26-1.51.53-2.25.8-.51.19-1.02.37-1.52.56-.39.14-.78.29-1.16.43-.52.19-1.02.39-1.53.58-.32.12-.64.24-.96.37-.19.07-.37.15-.56.22-.07.02-.14.05-.21.08-.06.02-.13.05-.19.07-.97.38-1.93.77-2.88,1.15-1.61.65-3.19,1.31-4.75,1.99-.71.31-1.42.61-2.12.92-1.4.62-2.78,1.24-4.14,1.88-.68.32-1.36.63-2.03.95-1.04.48-2.07.98-3.09,1.49-1.01.49-2.01.99-2.99,1.49-.04.02-.09.04-.13.06-.91.47-1.81.93-2.7,1.39-1.95,1.02-3.85,2.05-5.7,3.08-.91.51-1.81,1.01-2.7,1.52-.1.05-.2.11-.3.17-.79.45-1.56.9-2.32,1.35-.87.5-1.72,1.01-2.55,1.52-.39.23-.77.46-1.15.69-.38.23-.75.46-1.12.69-.07.04-.14.09-.21.13-.09.05-.17.11-.26.16-.27.17-.53.33-.79.49-.35.22-.7.43-1.04.65-.05.04-.1.07-.15.1-.27.17-.53.34-.79.5-.38.25-.76.49-1.14.73-.45.29-.9.58-1.34.87-.96.64-1.91,1.27-2.83,1.89-.59.4-1.16.79-1.73,1.18-.5.33-1.01.69-1.51,1.04-.13.09-.27.19-.4.28-.3.21-.59.41-.88.62-.15.1-.29.21-.44.31-.15.1-.29.2-.43.3-.33.24-.66.49-.99.72-.07.05-.14.1-.22.16-2.34,1.68-4.49,3.3-6.47,4.84.54-.44,1.09-.87,1.65-1.3h.01c1.52-1.18,3.06-2.34,4.61-3.48,1.55-1.15,3.11-2.26,4.68-3.36.79-.54,1.58-1.09,2.37-1.63.2-.14.4-.27.6-.41.39-.26.79-.53,1.19-.79.2-.13.4-.27.6-.4,1.59-1.06,3.2-2.1,4.8-3.11.41-.26.81-.51,1.22-.76.21-.13.41-.26.61-.38s.4-.24.61-.37c.32-.2.64-.4.96-.59.32-.2.64-.38.96-.57.52-.32,1.05-.64,1.57-.94.12-.07.24-.14.36-.21.21-.13.43-.25.64-.37.47-.28.95-.56,1.42-.83.49-.28.98-.56,1.48-.84,1.15-.65,2.31-1.29,3.47-1.92,1.16-.64,2.33-1.26,3.5-1.87.18-.09.35-.19.54-.28.69-.36,1.4-.72,2.1-1.08.25-.12.5-.24.75-.37.35-.18.69-.35,1.04-.53.15-.07.31-.14.46-.22h0c.5-.25,1-.49,1.5-.73h.01c.33-.17.66-.33,1-.49.7-.34,1.41-.67,2.12-1,.63-.3,1.27-.59,1.91-.89.63-.29,1.26-.57,1.9-.86h.01c.51-.23,1.03-.46,1.55-.68.84-.37,1.68-.73,2.52-1.09.06-.03.13-.06.2-.09,1.17-.5,2.35-.98,3.53-1.46,1.75-.71,3.5-1.4,5.26-2.06.59-.23,1.18-.45,1.77-.67.74-.27,1.48-.54,2.21-.8.37-.14.75-.27,1.13-.4.96-.34,1.91-.67,2.87-.99.67-.22,1.34-.45,2.01-.67.22-.07.45-.15.68-.22.45-.15.9-.3,1.35-.44,1.34-.43,2.68-.85,4.03-1.26Z"/>
  <path class="cls-1" d="m458.32,305.43c-.07.02-.14.05-.21.07.01-.01.02-.01.04-.02.05-.01.11-.03.17-.05Z"/>
  <path class="cls-1" d="m461.28,304.6c-.4.1-.79.21-1.18.33.01,0,.03,0,.04-.02.01,0,.01-.01.02-.01.05-.01.1-.02.15-.04.32-.09.64-.18.97-.26Z"/>
  <path class="cls-1" d="m461.79,304.46s-.07.01-.11.03c.02,0,.03,0,.05-.02.02,0,.04-.01.06-.01Z"/>
  <path class="cls-1" d="m371.9,350.56c-1.7,1.37-3.27,2.66-4.62,3.81.08-.06.15-.13.22-.2.08-.06.15-.13.22-.2.15-.13.3-.26.45-.4.3-.26.61-.53.92-.79.29-.25.58-.49.87-.72h.01c.09-.07.17-.15.25-.21.09-.07.18-.14.26-.2.07-.05.13-.09.19-.14.03-.03.06-.06.09-.08.15-.11.29-.22.44-.33.23-.18.47-.35.7-.54Z"/>
  <path class="cls-1" d="m769.82,537.34v.09h.28c-.09-.03-.18-.06-.28-.09Z"/>
  <path class="cls-1" d="m601.35,237.73c.84,3.06,2.41,4.51,5.68,5.4,43.6,11.83,82.46,32.73,116.91,61.86,6.21,5.25,12.07,10.92,18.36,16.64,23.78-23.74,47.57-47.5,71.37-71.25-1.14.1-1.93.61-2.74,1.07-22.4,12.75-44.81,25.47-67.18,38.27-1.94,1.11-3.26,1.09-5.05-.45-29.47-25.28-62.34-44.84-98.75-58.39-14.58-5.43-29.36-10.16-45.18-13.18,1.21,3.76,2.25,7.02,3.32,10.27,1.08,3.26,2.36,6.46,3.26,9.77Z"/>
  <path class="cls-1" d="m227.98,460.15c1.06-3.03,1.95-6.12,2.9-9.19,12.73-41.58,32.76-79.17,61.36-112.06,4.98-5.72,10.26-11.18,15.42-16.79-23.31-22.99-46.52-45.87-69.73-68.75.59,1.61,1.55,2.9,2.34,4.29,11.61,20.44,23.12,40.94,34.86,61.3,1.83,3.17,1.69,5-.77,7.9-25.79,30.29-45.65,64.09-58.76,101.69-4.67,13.39-8.38,27.11-12.8,41.56,8.56-2.88,16.04-5.36,23.48-7.96.73-.25,1.43-1.22,1.7-2Z"/>
  <path class="cls-1" d="m763.16,342.99c-.34.61,29.79,43.29,40.38,66.09,7.52,16.19,13.77,32.85,18.61,50.05.33,1.19,1.2,2.8,2.19,3.15,7.26,2.59,14.62,4.9,22.72,7.56-12.9-54.49-35.96-103.17-72.94-145.48-3.83,6.47-7.48,12.5-10.95,18.63Z"/>
  <path class="cls-1" d="m331.97,300.35c13.21-9.2,26.21-18.78,39.95-27.13,22.68-13.77,47.27-23.35,72.82-30.42,1.78-.49,2.6-1.28,3.21-3,2.54-7.28,5.27-14.49,8.1-22.2-55.52,11.64-103.71,36.57-146.33,72.74,5.96,3.54,11.64,6.8,17.2,10.26,1.92,1.19,3.13,1.09,5.06-.25Z"/>
  <g>
    <path class="cls-1" d="m672.93,587.83c-.01,22.45-.02,44.92-.03,67.38-.01,4.91-.02,4.89-4.92,4.59-3.84-.25-7.69-.58-11.53-.62-2.26-.02-3.57-.81-4.7-2.79-9.21-16.16-18.53-32.26-27.81-48.37-.72-1.23-1.48-2.41-2.39-3.91-.93,1.33-.63,2.54-.63,3.63-.04,13.86-.05,27.74-.06,41.6,0,.65.01,1.32-.01,1.98-.05,2.52.29,4.08-1.06,4.75h-10.91c-1.49-.52-2.91-.25-4.25-.29-5.7-.15-5.71-.11-5.71-5.72-.01-29.72-.02-59.44-.02-89.17-.01-5.21.02-5.22,5.28-5.23,3.96-.01,7.93.15,11.89-.05,2.65-.13,4.23.85,5.54,3.13,6.6,11.44,13.35,22.8,20.03,34.18,2.34,3.99,4.63,8,6.96,12,.32.55.55,1.21,1.41,1.56.82-1.03.47-2.27.47-3.39.02-14.09,0-28.17.01-42.27q0-5.15,5.06-5.14c4.07,0,8.14,0,12.22.02q5.16.02,5.17,5.05c.01,9.03.01,18.05.01,27.08Z"/>
    <path class="cls-1" d="m913.51,624.05c0,6.27,0,12.54,0,18.81.01,17.17.02,34.34.03,51.51,0,.77.04,1.54,0,2.31-.14,2.36-.5,2.7-2.86,2.2-5.38-1.14-10.75-2.35-16.1-3.61-2.49-.59-2.8-1.05-2.97-3.63-.08-1.21-.05-2.42-.05-3.63,0-42.48.02-84.97.04-127.45q0-4.88,4.99-4.89c4.4-.01,8.81.1,13.21-.06,2.39-.09,3.57.88,4.39,3.05,4.13,11.02,8.4,22,12.56,33.01,5.08,13.49,10.09,27,15.15,40.5.37.99.59,2.08,1.5,3.02.42-3.02-.29-5.82-.29-8.64,0-22.23-.02-44.47-.03-66.7,0-.66.02-1.32.07-1.98.09-1.44.84-2.2,2.32-2.2,1.87,0,3.74,0,5.61-.03,2.97-.04,5.94.05,8.91-.24,4.47-.44,5.01.08,5.01,4.5-.02,34.56-.04,69.12-.07,103.68,0,14.42-.01,28.84-.02,43.25,0,.44,0,.88,0,1.32-.04,4.16-.26,4.3-4.41,3.21-4.26-1.12-8.51-2.24-12.81-3.19-2.39-.53-3.74-1.73-4.58-4.09-6.81-19.18-13.73-38.33-20.64-57.47-2.73-7.55-5.53-15.07-8.3-22.6l-.64.06Z"/>
    <path class="cls-1" d="m203.58,693.18c-.09-.4-.27-1.26-.48-2.11-2.12-8.66-4.31-17.29-6.35-25.98-5.98-25.38-11.89-50.77-17.83-76.16-2.33-9.96-4.66-19.92-7.04-29.87-.78-3.26-.91-3.36-4.19-3.38-5.07-.03-10.13-.03-15.19.02-2.71.03-2.95.27-3.53,2.89-3.45,15.69-6.91,31.37-10.33,47.07-5.59,25.69-11.16,51.39-16.71,77.08-2.24,10.33-4.45,20.65-6.61,30.99-.68,3.28-.32,3.65,2.85,2.84,5.65-1.45,11.23-3.13,16.91-4.45,2.65-.61,3.84-1.98,4.35-4.57,1.46-7.34,3.16-14.62,4.67-21.95.44-2.08,1.44-3.19,3.61-3.65,7.96-1.69,15.89-3.57,23.83-5.34,2.73-.6,3.04-.36,3.76,2.2.27.95.49,1.92.7,2.89,1.19,5.14,2.37,10.29,3.56,15.43.83,3.53.95,3.66,4.39,2.88,4.61-1.04,9.2-2.17,13.8-3.28,1.49-.36,2.97-.79,4.47-1.18.96-.27,1.53-.83,1.35-2.37Zm-38.74-47.63c-3.65.8-7.28,1.6-10.94,2.33-2.13.44-2.5.15-2.08-1.88,2.65-13.11,5.36-26.22,8.04-39.31,1.31,1.87,1.48,3.94,1.89,5.95,1.93,9.57,3.85,19.14,5.75,28.72.67,3.45.62,3.48-2.65,4.19Z"/>
    <path class="cls-1" d="m840.58,681.3c-.65-2.77-1.3-5.78-2.08-8.76-6.73-25.53-13.44-51.06-20.23-76.58-3.25-12.23-6.64-24.41-10-36.61-.95-3.5-1.14-3.62-4.78-3.63-5.06-.02-10.12-.03-15.19.02-2.87.02-3.1.22-3.91,2.97-1.37,4.65-2.67,9.31-4,13.97-5.79,20.42-11.54,40.86-17.39,61.27-3.06,10.68-6.28,21.32-9.39,31.98-.85,2.92-.62,3.23,2.3,3.68,5.66.85,11.32,1.69,16.98,2.48,3.17.45,3.62.12,4.48-2.86.22-.75.39-1.49.59-2.24,1.06-3.93,2.06-7.88,3.19-11.78.79-2.68,1.12-2.85,3.73-2.47,7.72,1.13,15.43,2.4,23.17,3.36,2.57.32,3.51,1.48,4.01,3.83,1.18,5.6,2.64,11.13,3.88,16.71.39,1.77,1.3,2.63,3.07,2.87,1.97.25,3.91.67,5.85,1.04,4.54.85,9.08,1.72,13.62,2.56,1.24.23,2.26.07,2.09-1.82Zm-49.85-53.74c-1.78-.26-2.24-.98-1.84-2.78.47-2.13,1.16-4.23,1.69-6.36,1.55-6.28,3.07-12.58,4.62-18.86.25-1.04.33-2.16,1.42-3.46,2.73,11.13,5.37,21.92,8.16,33.3-5.15-.66-9.61-1.18-14.04-1.84Z"/>
    <path class="cls-1" d="m238.21,635.16c.93-4.15,1.86-8.3,2.79-12.45,3.34-14.92,6.7-29.83,10.03-44.75,1.41-6.33,2.73-12.69,4.16-19.02.67-2.99.9-3.16,4.01-3.18,5.5-.04,11-.04,16.5-.02,3.37.02,3.67.36,2.86,3.67-2.78,11.32-5.67,22.62-8.41,33.95-6.59,27.26-13.12,54.54-19.67,81.81-.59,2.46-1.32,4.89-1.8,7.37-.38,2.01-1.45,3-3.43,3.4-4.96,1-9.88,2.16-14.83,3.21-2.6.55-3.06.31-3.69-2.33-1.65-6.84-3.17-13.72-4.79-20.57-4.58-19.26-9.15-38.52-13.79-57.77-3.92-16.25-7.93-32.48-11.89-48.72-.1-.43-.24-.85-.32-1.28-.42-2.36-.18-2.75,2.26-2.77,6.27-.06,12.54-.06,18.81,0,2.81.02,2.95.21,3.63,3.18,3.29,14.25,6.62,28.5,9.85,42.76,2.28,10.08,4.42,20.2,6.62,30.3.23,1.07.48,2.13.72,3.19l.38.03Z"/>
    <path class="cls-1" d="m496.65,596.05c-1.34-9.98-4.5-19.26-10.49-27.44-12.76-17.39-35.61-18.86-50.8-8.11-7.56,5.36-12.45,12.64-15.64,21.16-4.97,13.23-5.41,26.84-2.91,40.61,1.52,8.4,4.07,16.49,9.25,23.42,9.63,12.88,21.08,15.91,35.13,13.53,12.03-2.03,20.92-9.23,27.28-19.58,6.35-10.36,8.49-21.8,8.87-33.7.04-3.33-.26-6.61-.7-9.89Zm-25.46,25.92c-2.23,5.41-5.71,9.67-11.66,11.26-6.54,1.76-12.75-.58-16.32-6.32-4.81-7.71-5.97-16.22-4.98-25.09.62-5.66,2.33-10.96,5.77-15.61,4.04-5.45,10.52-7.69,16.98-5.82,3.91,1.12,6.7,3.68,8.75,7.11,3.43,5.76,4.64,12.05,4.28,18.89.44,5.31-.76,10.55-2.82,15.57Z"/>
    <path class="cls-1" d="m582.42,618.73c-.17,10.13-3.1,19.59-10.38,27.13-5.43,5.62-12.05,8.91-19.92,10.05-9.34,1.35-17.9-.32-25.75-5.45-5.48-3.57-9.47-8.5-12.19-14.44-.93-2.05-2.55-3.89-2.3-6.36-2.15-1.4-1.27-3.89-1.94-5.8-.66-1.89-.3-4.13-.31-6.22-.02-9.14-.01-18.27-.01-27.41h-.03c0-10.34-.01-20.68,0-31.03.01-3.72.17-3.89,3.93-3.92,4.85-.04,9.69-.05,14.53-.02,3.8.02,4.1.32,4.11,4.19.03,16.95.02,33.89.05,50.85.01,3.4-.18,6.83.95,10.13.54,1.56,1.13,3.1,1.96,4.54,2.56,4.4,6.48,6.58,11.48,6.41,5.4-.18,9.44-2.76,11.63-7.82,1.27-2.95,1.74-6.09,1.73-9.34-.04-17.82-.03-35.66-.02-53.48q.01-5.46,5.48-5.47c4.52-.01,9.03-.05,13.54.03,3.22.05,3.59.44,3.59,3.69,0,19.92.2,39.84-.13,59.75Z"/>
    <path class="cls-1" d="m755.42,579.1c-.02,3.41-.41,3.81-3.82,3.8-4.73-.02-9.46.22-14.19-.29-1.19-.13-2.41-.12-3.63-.05-2.07.1-2.47.46-2.52,2.59-.09,3.64-.05,7.26-.05,10.89-.01,9.46,0,18.92,0,28.38h-.03v35.98c0,.87.01,1.75-.02,2.63-.1,3.06-.52,3.41-3.56,3.05-5.03-.59-10.04-1.19-15.07-1.79-3.17-.38-3.45-.64-3.46-3.95-.03-14.08-.02-28.16-.03-42.25,0-10.66.01-21.34,0-32.01-.01-3.53-.13-3.66-3.76-3.69-5.28-.05-10.56-.03-15.84-.1-3.63-.04-3.98-.38-4-3.98-.04-6.38-.05-12.77,0-19.14.02-3.04.38-3.41,3.48-3.41,20.9-.02,41.8-.02,62.7,0,3.34,0,3.74.41,3.77,3.88.06,6.49.06,12.97.03,19.46Z"/>
    <path class="cls-1" d="m873.8,623.33c0,21.01,0,42.02,0,63.04,0,4.31-.11,4.37-4.26,3.47-4.84-1.05-9.68-2.04-14.52-3.07-3.88-.83-3.76-.84-4.05-4.65-.51-6.7-.3-13.41-.3-20.12-.03-33.66-.03-67.33-.03-100.99q0-5.29,5.24-5.3c4.84,0,9.68-.05,14.52,0,2.86.03,3.18.4,3.31,3.26.05,1.1.02,2.2.02,3.3,0,20.35,0,40.7,0,61.06h.07Z"/>
  </g>
  <path class="cls-1" d="m414.68,872.45l-1.11,4.06,6.7,1.82-5.73,21.05,5.04,1.37,5.72-21.05,6.69,1.82,1.11-4.06-18.42-5.02Z"/>
  <g>
    <path class="cls-1" d="m307.94,821.95c-.75-1.38-1.94-2.67-3.56-3.84l-7.77-5.62-15.23,21.11,4.24,3.06,5.85-8.1,3.53,2.55c1.73,1.25,3.39,1.99,4.96,2.2,1.58.22,2.98.03,4.23-.57,1.24-.6,2.28-1.47,3.1-2.6.89-1.25,1.42-2.57,1.55-3.98.13-1.4-.17-2.8-.9-4.2Zm-5,5.04c-.7.97-1.53,1.51-2.48,1.65-.94.12-2.01-.23-3.18-1.08l-3.36-2.42,4.44-6.13,3.36,2.41c2.29,1.67,2.69,3.52,1.22,5.57Z"/>
    <path class="cls-1" d="m331.3,837c-.84-1.34-2.11-2.54-3.83-3.59l-8.32-5.1-13.6,22.2,4.46,2.73,5.3-8.65,2.09,1.28-.39,11.65,5.15,3.15.2-12.25c1.94.58,3.7.55,5.26-.11,1.58-.65,2.81-1.72,3.7-3.18.79-1.27,1.18-2.6,1.21-4,.03-1.41-.38-2.78-1.22-4.12Zm-4.62,5.42c-.64,1.04-1.43,1.66-2.38,1.88-.95.22-2.02-.03-3.23-.78l-3.72-2.27,3.99-6.52,3.72,2.27c1.2.75,1.94,1.58,2.19,2.5.25.93.06,1.91-.56,2.92Z"/>
    <path class="cls-1" d="m344.02,842.95l-12.25,22.96,4.6,2.46,12.25-22.95-4.6-2.47Z"/>
    <path class="cls-1" d="m373.78,857.49l-15.05,15.89,2.06-21.8-5.1-2.32-2.09,27.66,5.77,2.61,19.47-19.73-5.07-2.3Z"/>
    <path class="cls-1" d="m399.31,894.99l-.05-27.69-5.73-2.05-17.57,21.4,5.16,1.84,3.28-4.08,9.76,3.48-.05,5.24,5.2,1.85Zm-12.18-14.04l7.21-8.99-.11,11.52-7.1-2.53Z"/>
    <path class="cls-1" d="m455.6,886.48l.84-4.17-14.82-2.96-5.11,25.56,14.81,2.96.83-4.17-9.69-1.95,1.36-6.77,8.59,1.73.82-4.07-8.6-1.71,1.28-6.4,9.69,1.94Z"/>
  </g>
  <g>
    <path class="cls-1" d="m602.88,907.18l-8.42,1.62-4.12-21.49-5.12.97,4.9,25.56,13.54-2.6-.78-4.06Z"/>
    <path class="cls-1" d="m612.03,882.52l-5.07,1.24,6.19,25.27,5.07-1.23-6.19-25.28Z"/>
    <path class="cls-1" d="m648.77,871.49l-5.61,1.8-1.94,20.96-13.82-15.87-5.64,1.81,7.98,24.78,4.97-1.61-5.2-16.11,11.88,13.96,3.76-1.21,1.44-18.25,5.19,16.11,4.97-1.61-7.99-24.77Z"/>
    <path class="cls-1" d="m662.89,865.72l-4.85,1.95,9.75,24.13,4.84-1.95-9.74-24.13Z"/>
    <path class="cls-1" d="m683.81,861.01l6.28-2.96-1.79-3.81-17.27,8.14,1.79,3.8,6.28-2.94,9.29,19.73,4.73-2.23-9.31-19.73Z"/>
    <path class="cls-1" d="m719.79,861.86l-8.63,4.81-3.36-6.02,7.66-4.26-2.02-3.63-7.65,4.27-3.19-5.7,8.63-4.81-2.07-3.71-13.18,7.36,12.7,22.76,13.17-7.36-2.06-3.71Z"/>
    <path class="cls-1" d="m746.01,842.9c-.12-2.25-.91-4.47-2.35-6.64-1.44-2.18-3.17-3.77-5.21-4.8-2.02-1.04-4.21-1.42-6.53-1.17-2.32.26-4.62,1.14-6.9,2.65l-7.59,5.02,14.34,21.7,7.6-5.02c2.27-1.49,3.99-3.27,5.13-5.31,1.14-2.04,1.65-4.19,1.51-6.43Zm-5.19,2.79c-.42,2.06-1.78,3.84-4.05,5.36l-3.09,2.04-9.47-14.35,3.08-2.02c2.29-1.51,4.47-2.04,6.56-1.59,2.08.45,3.87,1.81,5.37,4.06,1.49,2.27,2.03,4.42,1.61,6.5Z"/>
  </g>
  <path class="cls-1" d="m402.25,561.03v96.44c0,4.61,0,4.67-4.57,5.32-4.58.65-9.17,1.19-13.76,1.68-2.35.26-2.69-.07-2.88-2.4-.08-1.1-.03-2.2-.05-3.31-.28-15.41.55-30.8.43-46.21-.02-1.21,0-2.42-.45-3.75-.57,1.89-1.19,3.77-1.71,5.68-4.22,15.38-8.23,30.82-11.96,46.34-1.35,5.57-1.35,5.66-6.86,6.4-7.39.98-6.14,1.86-7.94-5.34-4.14-16.66-8.18-33.34-12.62-49.92-.16-.61-.13-1.32-.97-1.88v3.31c0,17.28-.01,34.57-.02,51.85,0,.99-.04,1.98-.01,2.97.04,1.59-.69,2.43-2.28,2.66-4.84.67-9.68,1.43-14.53,2.09-.5.07-.98.14-1.48.21-1.91.25-2.28-.16-2.46-2.13-.08-.87-.05-1.75-.05-2.63v-1.72c-.01-35.43-.03-70.85-.04-106.27,0-.67-.03-1.33.02-1.98.16-2.09.48-2.55,2.6-2.58,6.82-.08,13.65-.01,20.47-.02,1.9-.01,2.63,1.06,3.1,2.76,2.3,8.27,4.67,16.52,7.04,24.76,2.93,10.14,5.89,20.28,8.84,30.41.16.52.33,1.03.51,1.53.16-.02.33-.05.5-.08,2.16-7.84,4.33-15.69,6.51-23.52,3.05-10.92,6.1-21.83,9.16-32.75.86-3.04,1-3.17,4.06-3.19,6.05-.03,12.1-.04,18.16.01,2.88.02,3.14.37,3.23,3.28.02.66,0,1.32,0,1.98Z"/>
  <path class="cls-1" d="m496.65,596.05c-1.34-9.98-4.5-19.26-10.49-27.44-12.76-17.39-35.61-18.86-50.8-8.11-7.56,5.36-12.45,12.64-15.64,21.16-4.97,13.23-5.41,26.84-2.91,40.61,1.52,8.4,4.07,16.49,9.25,23.42,9.63,12.88,21.08,15.91,35.13,13.53,12.03-2.03,20.92-9.23,27.28-19.58,6.35-10.36,8.49-21.8,8.87-33.7.04-3.33-.26-6.61-.7-9.89Zm-25.46,25.92c-2.23,5.41-5.71,9.67-11.66,11.26-6.54,1.76-12.75-.58-16.32-6.32-4.81-7.71-5.97-16.22-4.98-25.09.62-5.66,2.33-10.96,5.77-15.61,4.04-5.45,10.52-7.69,16.98-5.82,3.91,1.12,6.7,3.68,8.75,7.11,3.43,5.76,4.64,12.05,4.28,18.89.44,5.31-.76,10.55-2.82,15.57Z"/>
  <path class="cls-1" d="m582.55,558.98c0,19.92.2,39.84-.13,59.75-.17,10.13-3.1,19.59-10.38,27.13-5.43,5.62-12.05,8.91-19.92,10.05-9.34,1.35-17.9-.32-25.75-5.45-5.48-3.57-9.47-8.5-12.19-14.44-.93-2.05-2.55-3.89-2.3-6.36-2.15-1.4-1.27-3.89-1.94-5.8-.66-1.89-.3-4.13-.31-6.22-.02-9.14-.01-18.27-.01-27.41h-.03c0-10.34-.01-20.68,0-31.03.01-3.72.17-3.89,3.93-3.92,4.85-.04,9.69-.05,14.53-.02,3.8.02,4.1.32,4.11,4.19.03,16.95.02,33.89.05,50.85.01,3.4-.18,6.83.95,10.13.54,1.56,1.13,3.1,1.96,4.54,2.56,4.4,6.48,6.58,11.48,6.41,5.4-.18,9.44-2.76,11.63-7.82,1.27-2.95,1.74-6.09,1.73-9.34-.04-17.82-.03-35.66-.02-53.48q.01-5.46,5.48-5.47c4.52-.01,9.03-.05,13.54.03,3.22.05,3.59.44,3.59,3.69Z"/>
  <path class="cls-1" d="m651.74,656.38c-9.21-16.16-18.53-32.26-27.81-48.37-.72-1.23-1.48-2.41-2.39-3.91-.93,1.33-.63,2.54-.63,3.63-.04,13.86-.05,27.74-.06,41.6,0,.65.01,1.32-.01,1.98-.05,2.52.29,4.08-1.06,4.75h-10.91c-1.49-.52-2.91-.25-4.25-.29-5.7-.15-5.71-.11-5.71-5.72-.01-29.72-.02-59.44-.02-89.17-.01-5.21.02-5.22,5.28-5.23,3.96-.01,7.93.15,11.89-.05,2.65-.13,4.23.85,5.54,3.13,6.6,11.44,13.35,22.8,20.03,34.18,2.34,3.99,4.63,8,6.96,12,.32.55.55,1.21,1.41,1.56.82-1.03.47-2.27.47-3.39.02-14.09,0-28.17.01-42.27q0-5.15,5.06-5.14c4.07,0,8.14,0,12.22.02q5.16.02,5.17,5.05c.01,9.03.01,18.05.01,27.08-.01,22.45-.02,44.92-.03,67.38-.01,4.91-.02,4.89-4.92,4.59-3.84-.25-7.69-.58-11.53-.62-2.26-.02-3.57-.81-4.7-2.79Z"/>
  <path class="cls-1" d="m755.39,559.64c.06,6.49.06,12.97.03,19.46-.02,3.41-.41,3.81-3.82,3.8-4.73-.02-9.46.22-14.19-.29-1.19-.13-2.41-.12-3.63-.05-2.07.1-2.47.46-2.52,2.59-.09,3.64-.05,7.26-.05,10.89-.01,9.46,0,18.92,0,28.38h-.03v35.98c0,.87.01,1.75-.02,2.63-.1,3.06-.52,3.41-3.56,3.05-5.03-.59-10.04-1.19-15.07-1.79-3.17-.38-3.45-.64-3.46-3.95-.03-14.08-.02-28.16-.03-42.25,0-10.66.01-21.34,0-32.01-.01-3.53-.13-3.66-3.76-3.69-5.28-.05-10.56-.03-15.84-.1-3.63-.04-3.98-.38-4-3.98-.04-6.38-.05-12.77,0-19.14.02-3.04.38-3.41,3.48-3.41,20.9-.02,41.8-.02,62.7,0,3.34,0,3.74.41,3.77,3.88Z"/>
  <path class="cls-1" d="m307.45,523.17c-.87.35-1.74.7-2.61,1.05-.17.05-.33.12-.49.19-.85.32-1.7.64-2.55.95-.66.25-1.32.49-1.99.72-.66.24-1.33.47-2,.69-.85.3-1.7.58-2.54.86-1.95.63-3.9,1.23-5.87,1.81-.58.18-1.16.35-1.74.51-1.77.52-3.57,1.01-5.35,1.48-.58.17-1.16.31-1.74.47.14-1.9.3-3.89.51-5.96.51-.24,1.01-.47,1.51-.71.79-.38,1.58-.76,2.36-1.16.12-.06.23-.12.36-.18.71-.36,1.43-.72,2.14-1.11.06-.03.13-.06.19-.09,6.6.15,13.21.32,19.81.48Z"/>
  <path class="cls-1" d="m768.82,534.39v.22c0-.07,0-.14-.01-.22h.01Z"/>
  <path class="cls-1" d="m909.71,537.81c-11.17-.02-22.33-.04-33.5-.07h-1.44c-26.88-.08-53.77-.16-80.65-.23-8.01-.03-16.01-.06-24.02-.08h-.28v-.09c-.01-.32-.02-.65-.03-.98-.01-.33-.02-.67-.04-1.01,0-.31-.02-.62-.04-.94h.01c46.66,1.13,93.33,2.27,139.99,3.4Z"/>
  <path class="cls-1" d="m609.28,310.81s-.05-.01-.08-.02h0s.06,0,.08.02Z"/>
  <path class="cls-1" d="m609.32,310.83s-.03-.01-.04-.01h0s.03,0,.04.01Z"/>
  <path class="cls-1" d="m455.2,306.36c-.68.21-1.36.43-2.04.65-.26.08-.51.16-.76.24-.26.08-.52.16-.77.25-.15.05-.3.09-.45.14-.08.02-.16.05-.23.07-.85.28-1.69.56-2.52.84-.78.26-1.55.53-2.32.8-.76.26-1.51.53-2.25.8-.51.18-1.02.36-1.52.56-.39.14-.78.29-1.16.43-.52.19-1.02.39-1.53.58-.32.12-.64.24-.96.37-.19.07-.37.15-.56.22-.07.02-.14.05-.21.08-.06.02-.13.05-.19.07-13.84,5.31-27.09,11.89-39.55,19.65-.38.23-.75.46-1.12.69-.07.04-.14.09-.21.13-.09.05-.17.11-.26.16-.27.17-.53.33-.79.49-.35.22-.7.43-1.04.65-.05.04-.1.07-.15.1-.27.17-.53.34-.79.5-.38.25-.76.49-1.14.73-.45.29-.9.58-1.34.87-.96.64-1.91,1.27-2.83,1.89-.59.4-1.16.79-1.73,1.18-.5.33-1.01.69-1.51,1.04-.13.09-.27.19-.4.28-.3.21-.59.41-.88.62-.15.1-.29.21-.44.31-.11.08-.22.16-.33.24-.03.02-.06.04-.1.06-.33.24-.66.49-.99.72-.07.05-.14.1-.22.16-24.91,18.24-46.22,41.1-62.67,67.32-.02.04-.05.07-.07.11-.54.87-1.08,1.74-1.61,2.62h0c-3.81,6.26-7.34,12.69-10.58,19.29.46-.99.91-1.97,1.37-2.92.03-.06.07-.13.09-.19.22-.44.43-.88.64-1.31.24-.48.47-.96.7-1.43.29-.55.56-1.1.84-1.64.45-.87.89-1.73,1.34-2.55.06-.12.12-.24.19-.35.17-.32.35-.64.52-.96.82-1.47,1.66-2.94,2.51-4.39,2.55-4.37,5.24-8.62,8.05-12.78.94-1.38,1.89-2.76,2.85-4.12.97-1.36,1.94-2.71,2.93-4.05s2-2.67,3.01-3.99c.36-.46.72-.93,1.08-1.39.37-.46.74-.92,1.11-1.38.29-.38.59-.77.9-1.15,1.98-2.5,4.02-4.97,6.14-7.44.41-.47.81-.93,1.21-1.41,1.56-1.76,3.14-3.5,4.78-5.25.53-.57,1.07-1.14,1.61-1.71.54-.57,1.09-1.13,1.63-1.7.62-.63,1.24-1.27,1.86-1.9.31-.31.62-.63.94-.95.31-.32.62-.64.94-.95h.01c1.32-1.29,2.67-2.59,4.04-3.87,1.34-1.27,2.69-2.53,4.08-3.78l.57-.54c.19-.18.38-.36.58-.53.26-.23.54-.47.83-.73.29-.25.59-.52.91-.79.31-.27.64-.56.98-.85.34-.3.69-.6,1.05-.91.07-.07.15-.13.23-.19s.15-.13.22-.2c.15-.13.3-.26.45-.4.3-.26.61-.53.92-.79.29-.25.58-.49.87-.72h.01c.09-.07.17-.15.25-.21.09-.07.18-.14.26-.2.07-.05.13-.09.19-.14s.13-.1.19-.14c.11-.09.23-.18.34-.27.23-.18.47-.35.7-.54.25-.19.49-.39.74-.59.7-.57,1.41-1.13,2.18-1.72.1-.08.21-.16.31-.24.1-.08.21-.16.31-.24.54-.44,1.09-.87,1.65-1.3h.01c1.52-1.18,3.06-2.34,4.61-3.48.77-.57,1.55-1.13,2.34-1.69.77-.56,1.56-1.11,2.34-1.67.79-.54,1.58-1.09,2.37-1.63.2-.14.4-.27.6-.41.39-.26.79-.53,1.19-.79.2-.13.4-.27.6-.4,1.59-1.06,3.2-2.1,4.8-3.11.41-.26.81-.51,1.22-.76.21-.13.41-.26.61-.38.2-.13.4-.26.61-.38.32-.2.64-.39.96-.58.32-.2.64-.38.96-.57.29-.18.58-.35.88-.52l.69-.42c.12-.07.24-.14.36-.21.21-.13.43-.25.64-.37.47-.28.95-.56,1.42-.83.49-.28.98-.56,1.48-.84,1.15-.65,2.31-1.29,3.47-1.92,1.16-.64,2.33-1.26,3.5-1.87.18-.09.35-.19.54-.28.69-.36,1.4-.72,2.1-1.08.25-.12.5-.24.75-.37.35-.18.69-.35,1.04-.53.15-.07.3-.15.46-.23.5-.24,1-.48,1.5-.72h.01c.33-.17.66-.33,1-.49.7-.34,1.41-.67,2.12-1,.63-.3,1.27-.59,1.91-.89.63-.29,1.26-.57,1.9-.86h.01c.51-.23,1.03-.46,1.55-.68.84-.37,1.68-.73,2.52-1.09.06-.03.13-.06.2-.09,1.17-.5,2.35-.98,3.53-1.46,1.75-.71,3.5-1.4,5.26-2.06.59-.23,1.18-.45,1.77-.67.39-.14.79-.28,1.18-.42.34-.13.68-.26,1.03-.38.37-.14.75-.27,1.13-.4.96-.34,1.91-.67,2.87-.99.67-.22,1.34-.45,2.01-.67.22-.07.45-.15.68-.22.45-.15.9-.3,1.35-.44,1.34-.43,2.68-.85,4.03-1.26Z"/>
  <path class="cls-1" d="m458.32,305.43c-.07.02-.14.05-.21.07.01-.01.02-.01.04-.02.05-.01.11-.03.17-.05Z"/>
  <path class="cls-1" d="m461.28,304.6c-.4.1-.79.21-1.18.33.01,0,.03,0,.04-.02.01,0,.01-.01.02-.01.05-.01.1-.02.15-.04.32-.09.64-.18.97-.26Z"/>
  <path class="cls-1" d="m461.79,304.46s-.07.01-.11.03c.02,0,.03,0,.05-.02.02,0,.04-.01.06-.01Z"/>
  <path class="cls-1" d="m768.53,518.46c-.2-.15-.4-.3-.59-.45-.98-11.27-2.73-22.32-5.2-33.1.19.78.37,1.55.55,2.32,2.66,11.55,4.27,22.12,5.24,31.23Z"/>
  <path class="cls-1" d="m697.6,367.34l-.45-.45h.03c.15.15.28.3.42.45Z"/>
  <path class="cls-1" d="m698.88,368.63c-.42-.43-.86-.86-1.28-1.29t.02.01c.42.42.85.86,1.26,1.28Z"/>
  <path class="cls-1" d="m615,313.03c-.35-.14-.7-.28-1.05-.42-.23-.09-.45-.18-.68-.27.23.09.45.17.68.26.35.14.7.28,1.05.43Z"/>
  <path class="cls-1" d="m598.31,307.03c-.16-.05-.3-.1-.45-.14-.12-.04-.25-.08-.37-.12.12.03.25.07.37.11.15.05.29.1.45.15Z"/>
  <path class="cls-1" d="m287.24,487.13c-.09.36-.18.71-.26,1.06.06-.23.11-.46.16-.68.03-.12.06-.25.1-.38Z"/>
  <path class="cls-1" d="m290.48,475.62c-.22.7-.43,1.4-.64,2.09-.38,1.29-.75,2.56-1.1,3.79.16-.57.32-1.15.49-1.73.11-.33.2-.69.3-1.03.1-.34.2-.69.3-1.04.08-.25.16-.51.24-.77.08-.26.16-.52.24-.79.05-.17.11-.34.17-.52Z"/>
  <path class="cls-1" d="m291.05,473.75c-.07.22-.13.44-.21.66.04-.14.08-.27.12-.39.03-.09.06-.18.09-.27Z"/>
  <path class="cls-1" d="m590.52,304.7c-.14-.03-.28-.07-.41-.11-1.72-.47-3.44-.92-5.16-1.36.54.13,1.08.26,1.62.4,1.01.27,2.02.53,3.02.81.13.03.25.07.38.1.03,0,.05,0,.07.02.02.01.04.01.07.02.13.05.27.09.41.12Z"/>
  <path class="cls-1" d="m604.56,309.11c-.38-.13-.77-.27-1.16-.4.11.02.21.06.31.1.29.1.57.2.85.3Z"/>
  <path class="cls-1" d="m728.93,405.79c-3.29-4.99-6.75-9.86-10.39-14.6.38.48.75.96,1.11,1.43,1.19,1.58,2.36,3.15,3.49,4.74,1.02,1.41,2.03,2.83,3.01,4.24.95,1.39,1.88,2.79,2.78,4.19Z"/>
  <path class="cls-1" d="m712.92,384.15c-1.93-2.33-3.91-4.63-5.94-6.89.94,1.02,1.85,2.04,2.75,3.07,1.1,1.27,2.14,2.54,3.19,3.82Z"/>
  <path class="cls-1" d="m581.67,302.42c-.51-.11-1.02-.23-1.53-.36.25.05.5.11.74.16.26.07.53.13.79.2Z"/>
  <path class="cls-1" d="m570.68,300.08c-.19-.04-.39-.08-.58-.11-.01,0-.03-.01-.04-.01-.11-.03-.22-.05-.32-.06-.11-.03-.22-.05-.32-.07.42.07.84.16,1.26.25Z"/>
  <path class="cls-1" d="m563.64,298.84h-.04c-.06-.01-.11-.02-.16-.03.06.01.13.02.2.03Z"/>
  <path class="cls-1" d="m563.76,298.86h-.05s0-.01-.01-.01c.02,0,.04.01.06.01Z"/>
  <path class="cls-1" d="m576.44,301.24c-.68-.15-1.37-.29-2.05-.43.26.04.52.09.77.15.43.09.85.19,1.28.28Z"/>
  <path class="cls-1" d="m307.45,523.17c-.87.35-1.74.7-2.61,1.05-.17.05-.33.12-.49.19-.85.32-1.7.64-2.55.95-.66.25-1.32.49-1.99.72-.66.24-1.33.47-2,.69-.85.3-1.7.58-2.54.86-1.95.63-3.9,1.23-5.87,1.81-.58.18-1.16.35-1.74.51-1.77.52-3.57,1.01-5.35,1.48-.58.17-1.16.31-1.74.47.14-1.9.3-3.89.51-5.96.51-.24,1.01-.47,1.51-.71.79-.38,1.58-.76,2.36-1.16.12-.06.23-.12.36-.18.71-.36,1.43-.72,2.14-1.11.06-.03.13-.06.19-.09,6.6.15,13.21.32,19.81.48Z"/>
  <path class="cls-1" d="m768.82,534.39v.22c0-.07,0-.14-.01-.22h.01Z"/>
  <path class="cls-1" d="m559.53,298.23s-.08-.01-.12-.01l-1.32-.18s-.11-.02-.16-.03c.14.02.27.04.4.05.4.05.8.11,1.2.17Z"/>
  <path class="cls-1" d="m559.97,298.3s-.05,0-.08,0c-.03-.01-.07-.02-.11-.02.04,0,.08,0,.11.01h.02s.02.01.03.01.02,0,.03,0Z"/>
  <path class="cls-1" d="m563.87,298.88s-.07-.01-.11-.01c-.01,0-.03,0-.05,0t-.01-.01s.04.01.06.01c.04,0,.07,0,.11.02Z"/>
  <path class="cls-1" d="m583.7,302.92c-.41-.11-.82-.21-1.24-.3-.13-.04-.27-.07-.4-.1.13.03.27.06.4.09.41.1.83.2,1.24.31Z"/>
  <path class="cls-1" d="m594.12,305.74h0c-.27-.07-.53-.15-.79-.23.26.07.53.15.79.23Z"/>
  <path class="cls-1" d="m596.5,306.47c-.46-.14-.92-.28-1.37-.42-.03,0-.07-.02-.11-.03-.11-.04-.23-.08-.34-.11.12.03.23.06.35.1.03.01.07.02.1.03.46.14.91.28,1.37.43Z"/>
  <path class="cls-1" d="m606,309.62c-.1-.03-.2-.07-.29-.1-.08-.03-.15-.06-.22-.08.07.02.15.04.22.07.09.04.19.07.29.11Z"/>
  <path class="cls-1" d="m619.74,315c.13.05.27.11.4.17.09.04.17.07.25.11.04.01.07.03.1.04.13.05.26.1.39.15-.38-.16-.75-.33-1.14-.47Zm-.21-.09s.09.03.13.06c.03.01.06.02.08.03-.07-.04-.14-.06-.21-.09Zm-.04-.02s-.05-.02-.07-.03c.02,0,.03.02.05.03h.02s.02.01.03.02c-.01-.01-.02-.02-.03-.02Zm-1.32-.55s.04.01.06.03c.05.02.1.03.14.05-.06-.04-.13-.07-.2-.08Zm-2.13-.89c.12.05.23.1.35.15.02,0,.04.01.07.02-.14-.05-.28-.11-.42-.17Zm-2.09-.85c-.23-.09-.45-.17-.68-.26.23.09.45.18.68.27.35.14.7.28,1.05.42-.35-.15-.7-.29-1.05-.43Zm-8.24-3.09c-.07-.03-.15-.05-.22-.07.07.02.14.05.22.08.09.03.19.07.29.1-.1-.04-.2-.07-.29-.11Zm-7.85-2.63c-.12-.04-.25-.08-.37-.11.12.04.25.08.37.12.15.04.29.09.45.14-.16-.05-.3-.1-.45-.15Zm-2.73-.84s-.07-.02-.1-.03c-.12-.04-.23-.07-.35-.1.11.03.23.07.34.11.04.01.08.02.11.03.45.14.91.28,1.37.42-.46-.15-.91-.29-1.37-.43Zm-1.01-.3c-.26-.08-.53-.16-.79-.23.26.08.52.16.79.24h.02s-.01-.01-.02-.01Zm-4.01-1.16s-.05-.01-.07-.02c.02.01.04.02.07.03.13.04.27.08.41.11-.14-.03-.28-.07-.41-.12Zm-3.54-.95c.3.08.61.17.91.25.7.19,1.41.37,2.11.56-1-.28-2.01-.54-3.02-.81Zm-4.11-1.02c-.13-.03-.27-.06-.4-.09.13.03.27.06.4.1.42.09.83.19,1.24.3-.41-.11-.83-.21-1.24-.31Zm-13.04-2.78c.1.02.21.04.32.07.1.01.21.03.32.06.01,0,.03.01.04.01.19.03.39.07.58.11-.42-.09-.84-.18-1.26-.25Zm-5.66-.97s-.04-.01-.06-.01t.01.01s.04,0,.05,0c.04,0,.07.01.11.01-.04-.01-.07-.01-.11-.02Zm-.32-.05c.05.01.1.02.16.03h.04c-.07-.01-.14-.02-.2-.03Zm-3.55-.53h0s.01.01.02,0h-.02Zm-1.56-.22c-.13-.01-.26-.03-.4-.05.05.01.11.02.16.03l1.32.18s.08.01.12.01c-.4-.06-.8-.12-1.2-.17Zm-117.41,13.08c.39-.14.79-.28,1.18-.42.34-.13.68-.26,1.03-.38-.73.26-1.47.53-2.21.8Zm-14.83,6.04h0c.52-.22,1.03-.45,1.55-.67-.52.22-1.04.45-1.55.67Zm-8.45,3.97c-.16.08-.31.16-.46.23.15-.07.31-.14.46-.22.5-.25,1-.49,1.5-.73-.5.24-1,.48-1.5.72Zm-17.33,9.47c-.32.19-.64.37-.96.57-.32.19-.64.38-.96.58-.21.12-.41.25-.61.38.2-.12.4-.24.61-.37.93-.57,1.86-1.13,2.8-1.68l.69-.42c-.52.3-1.05.62-1.57.94Zm-18.6,12.37c.77-.57,1.55-1.13,2.34-1.69.77-.56,1.56-1.11,2.34-1.67-1.57,1.1-3.13,2.21-4.68,3.36Zm-10.95,8.44s.07-.04.1-.06c.11-.09.23-.18.34-.27-.15.11-.29.22-.44.33Zm-3.49,2.93c-.36.31-.71.61-1.05.91.34-.29.69-.59,1.05-.9h.01c.08-.06.15-.13.22-.2-.08.06-.16.12-.23.19Zm-13.05,12c-.32.31-.63.63-.94.95.32-.32.64-.64.95-.95h-.01Zm-3.74,3.8c-.54.57-1.09,1.13-1.63,1.7.54-.57,1.09-1.13,1.64-1.7.61-.63,1.23-1.27,1.85-1.9-.62.63-1.24,1.27-1.86,1.9Zm-8.02,8.66c1.56-1.76,3.16-3.51,4.78-5.25-1.64,1.75-3.22,3.49-4.78,5.25Zm-9.36,11.38c.37-.46.74-.92,1.11-1.38.29-.39.59-.77.89-1.15-.67.84-1.34,1.68-2,2.53Zm-43.27,87.5c-.1.35-.2.7-.3,1.04.1-.34.2-.69.31-1.03.07-.26.15-.52.23-.78-.08.26-.16.52-.24.77Z"/>
  <path class="cls-1" d="m557.62,297.97c-.31-.04-.63-.09-.95-.12.11.01.22.02.33.03.17.02.35.05.52.07.04,0,.07.01.1.02Z"/>
  <path class="cls-1" d="m559.89,298.28h0s-.07-.01-.11-.01c.04,0,.08,0,.11.01Z"/>
  <path class="cls-1" d="m559.97,298.3s-.05,0-.08,0t.02-.01s.02.01.03.01.02,0,.03,0Z"/>
  <path class="cls-1" d="m660.4,417.18l-1.62,6.61s-.01.02-.01.03c-.64-.87-1.28-1.74-1.92-2.62l1.3-1.34c.14-.15.28-.29.38-.39.24-.24.42-.41.56-.6.44-.56.87-1.13,1.31-1.69Z"/>
  <path class="cls-1" d="m634.35,321.87c-.46-.24-.92-.47-1.38-.7.18.09.37.18.55.27.28.14.55.29.83.43Z"/>
  <path class="cls-1" d="m616.87,313.79c-.16-.06-.32-.13-.48-.19-.12-.05-.23-.1-.35-.15.14.06.28.12.42.17.13.05.27.11.41.17Z"/>
  <path class="cls-1" d="m678.65,451.66c-2.17,3.43-4.02,6.68-5.63,9.87-2.08,4.13-3.92,8.25-5.44,12.26-1.84,4.82-3.16,8.94-4.17,12.98l-.18.75.33.2-.31.15-.15.41c-1.01,2.92-2.48,10.31-2.32,12.39l.03.48h-.31s-.15.82-.15.82c-.42,2.18-.71,4.48-.94,7.25-.08.95-.15,1.9-.22,2.87-.12,1.37-.22,2.73-.33,4.11-.09,1.21-.1,2.43-.11,3.6,0,.09,0,.19,0,.29-1.85-3.69-3.6-7.5-5.2-11.4-.35-.86-.72-1.72-1.05-2.58-.04-.1-.08-.21-.11-.31-.19-.53-.42-1.18-1.06-1.74l-.34-.31-2.52.31c.65-.33,1.31-.68,1.89-1.12l.29-.23.12-.49c.04-.13.12-.4.01-.73-.33-1.04-.67-2.07-1-3.11-1.37-4.2-2.79-8.54-3.81-12.9-.06-.25-.15-.48-.26-.68-.07-.15-.16-.28-.23-.38l-.37-.5s-1.43-.13-1.74-.16c0,0-.67-.04-.71-.05.63-.23,1.25-.49,1.85-.82l.68-.38-.49-2.3c-.25-1.15-.5-2.27-.72-3.38-.14-.75-.28-1.49-.41-2.23-.17-.9-.33-1.8-.51-2.69-.12-.59-.21-1.2-.29-1.8-.14-1.04-.29-2.1-.62-3.17l-.18-.54-.87-.24c-.16-.04-.33-.09-.48-.12.4-.2.81-.48,1.15-.93l.25-.34-.06-.39c-.09-.9-.19-1.79-.3-2.68-.45-3.87-.92-7.87-.94-11.79v-.61s-.55-.29-.55-.29c-.39-.2-.79-.37-1.17-.5.3-.09.61-.19.91-.33l.61-.28-.02-2.3c-.03-3.74-.07-7.61.26-11.38.04-.46.04-.93.03-1.43,0-.23-.04-.43-.07-.56l-.1-.55-.38-.25c-.12-.07-.24-.15-.36-.21.2-.08.38-.17.58-.31l.36-.25.13-.74c.05-.26.09-.51.12-.76l.23-2.26c.27-2.56.54-5.13.77-7.7.02-.25.06-.5.1-.74.1-.71.24-1.51.04-2.38l-.11-.52-.44-.19c.09-.02.17-.04.26-.08l.61-.19.4-2.56c.2-1.4.42-2.79.66-4.17.26-1.44.54-2.89.82-4.22.58.74,1.15,1.5,1.71,2.26,3.36,4.59,6.68,9.21,10.03,13.81l-.42,2.15,1.13-1.17c.64.88,1.28,1.75,1.92,2.62-.07.28-.13.56-.19.84-.06.35.06.74.31,1.02.17.19.36.28.47.33l.62.24.37-.26c1.77,2.42,3.55,4.83,5.35,7.23.41.54.82,1.07,1.23,1.61-.16-.01-.33-.01-.48-.01-2.47,0-4.96.55-7.41,1.64-2.39,1.07-4.71,2.55-7.1,4.51-.19.17-.33.34-.47.54-.07.08-.14.19-.24.31l-1.84,2.3,4.2-.94c.91-.21,1.74-.4,2.58-.57.13-.03.26-.05.38-.08-.16.18-.33.38-.49.6l-1.87,2.47,2.97-.85c1.17-.33,2.12-.74,2.96-1.1.19-.09.39-.17.59-.25-.07.14-.15.31-.2.49l-.52,1.85,2.22-.7c.24-.07.42-.13.6-.19l1.81-.66-1.76,2.12,2.78-.5c1.11-.2,2.18-.43,3.2-.68.2-.04.41-.1.6-.14-.02.04-.04.1-.05.15l-.42,1.3.47.02c-.67.21-1.32.44-1.94.69-4.1,1.61-7.22,4.32-9.29,8.05-1.66,2.99-2.56,6.31-2.77,10.16-.02.32.09.55.16.73.02.06.05.13.07.22l.6,1.81,1.2-1.49.25-.31c.19-.23.35-.42.48-.61.63-.95,1.91-2.88,1.91-2.88.01.36.08.81.37,1.32l1.01,1.76,1.14-2.5c.16-.39.31-.71.45-1.03.23-.51.45-1.03.68-1.54l.12-.31c.05.24.16.5.35.78l.9,1.31.83-1.36.24-.38c.17-.27.31-.5.44-.74.29-.56.57-1.12.85-1.67l-.41,3.03,2.25-2.55c.82-.92,1.51-1.91,2.18-2.88l-.19,3.1,2.43-2.88c.24-.28.44-.51.62-.74.7-.89,1.66-2.02,2.83-2.96.44-.36.93-.68,1.45-.93Z"/>
  <path class="cls-1" d="m627.87,447.01c.1-1.84.24-3.73.38-5.61.08-.97.14-1.93.23-2.88.41-4.23,1-8.74,1.81-13.77.71-4.41,1.59-8.84,2.65-13.34.89-3.82,1.92-7.71,3.08-11.66-.61.14-1.19.34-1.72.64-1.49.8-2.95,1.69-4.27,2.72-2.25,1.77-4.4,3.67-6.58,5.52-2.99,2.53-5.93,5.1-8.96,7.58-1.1.9-2.36,1.59-3.56,2.37-.18.11-.35.2-.52.29l-.05.19-.07-.14c-1.27.58-2.49.37-3.57-.48-.25.78-.53,1.57-.88,2.38l-.93,2.1-.97-2.09c-.05-.12-.1-.21-.15-.3-.13-.24-.26-.5-.31-.82-.22-1.44-.46-3.21-.56-5.11-.47-.55-.92-1.12-1.33-1.71-2.99-4.41-5.75-8.98-8.56-13.52-1.78-2.88-3.43-5.84-5.23-8.71-2.32-3.67-5.19-6.84-8.97-9.09-2.88-1.72-4.95-4.17-6.37-7.21-1.16-2.47-2.44-4.89-3.66-7.33-2.2-4.35-5.05-8.21-8.93-11.22-3.04-2.37-5.27-5.36-6.95-8.81-2.17-4.48-5.11-8.46-8.32-12.25-3.45-4.07-6.72-8.3-10.09-12.44-.9-1.1-1.83-2.21-2.85-3.2-1.96-1.89-4.31-2.29-6.88-1.54-2.17.63-4.04,1.83-5.71,3.28-2.17,1.88-4.28,3.83-6.25,5.9-6.12,6.42-11.69,13.33-16.83,20.55-7.17,10.08-14.12,20.32-21.25,30.43-2.4,3.4-4.98,6.69-7.63,9.9-2.34,2.83-5.2,5.14-8.59,6.63-5.67,2.49-9.94,6.54-13.58,11.43-5.3,7.1-10.66,14.15-16.1,21.15-3.76,4.83-7.67,9.53-11.6,14.23-1.32,1.58-2.61,3.24-4.7,4.36-1.8-1.21-3.72-2.33-5.44-3.7-5.39-4.29-10.72-8.7-16.07-13.05-1.31-1.06-2.6-2.17-3.96-3.18-2.57-1.87-5.29-2.03-8.06-.45-1.24.7-2.52,1.42-3.59,2.34-3.06,2.63-6.22,5.19-8.99,8.1-6.1,6.41-12.09,12.95-17.94,19.6-10.43,11.83-21.06,23.47-32.68,34.16-10.26,9.43-20.99,18.23-32.45,26.05-.39.27-.77.54-1.16.8-.29,2.22-.55,4.36-.77,6.43-.13,1.16-.25,2.3-.35,3.41.51-.24,1.01-.47,1.51-.71.79-.38,1.58-.76,2.36-1.16.12-.06.23-.12.36-.18.71-.36,1.43-.72,2.14-1.11.06-.03.13-.06.19-.09.05-.03.1-.05.15-.08.84-.45,1.67-.91,2.5-1.37.09-.05.18-.11.27-.15.78-.44,1.54-.89,2.31-1.34.13-.08.25-.15.37-.23.79-.47,1.59-.96,2.38-1.45.18-.12.38-.24.57-.37.55-.35,1.1-.7,1.63-1.06.03-.01.06-.02.08-.04.41-.27.82-.55,1.23-.83.11-.08.22-.15.33-.23.53-.36,1.07-.74,1.6-1.11.16-.11.33-.23.5-.35.01-.01.02-.01.03-.03.66-.47,1.33-.95,1.99-1.44.04-.03.07-.06.11-.09,1.03-.76,2.05-1.54,3.06-2.35.72-.58,1.45-1.16,2.16-1.76,11.36-9.44,21.78-19.81,31.64-30.77,8.01-8.92,15.83-18.01,23.84-26.92,3.66-4.06,7.57-7.9,11.4-11.79.97-.99,2.04-1.95,3.67-2.54.52,2.06.13,3.81-.31,5.53-1.25,4.83-3.41,9.27-6.15,13.42-4.94,7.52-10.14,14.84-15.77,21.87-.43.54-.76,1.17-1.39,2.17,1.01-.17,1.52-.19,1.97-.36,8.2-3,14.68-8.67,21.59-14.24.52,1.83.06,3.12-.41,4.44-1.77,4.99-4.63,9.35-8.3,13.1-2.72,2.78-5.59,5.48-8.67,7.86-13.51,10.48-27.81,19.75-42.97,27.64-.93.48-1.84.94-2.77,1.4l-.4.18c-.69.35-1.38.68-2.08.99-.02.01-.04.02-.06.03-.2.1-.39.2-.59.28-.04.02-.09.03-.13.05-.39.19-.78.36-1.17.54-.48.22-.97.42-1.46.64-.97.43-1.93.83-2.91,1.24h-.03c-.87.35-1.74.7-2.61,1.05-.17.05-.33.12-.49.19-.85.32-1.7.64-2.55.95-.66.25-1.32.49-1.99.72-.66.24-1.33.47-2,.69-.85.3-1.7.58-2.54.86-1.95.63-3.9,1.23-5.87,1.81-.58.18-1.16.35-1.74.51-1.77.52-3.57,1.01-5.35,1.48-.58.17-1.16.31-1.74.47-.06.64-.1,1.29-.14,1.91-.06.85-.11,1.67-.16,2.48.35-.01,1.02-.05,1.93-.11,3.11-.23,9.16-.8,16.4-2.25,14.49-2.9,30.26-9.01,33.01-10.09.06-.02.12-.05.18-.08h.01c15.49-6.06,25.81-10.09,38.72-18.29,11.69-7.44,22.48-16.31,32.36-26.61,8.94-9.33,16.91-19.48,24.28-30.07,6.54-9.41,12.9-18.96,19.36-28.42,1.62-2.36,3.32-4.67,5.08-6.93,1.94-2.48,4.11-4.73,6.78-6.42,1.73-1.11,3.48-2.2,5.85-2.2,0,.65.07,1.16-.01,1.65-.59,3.46-1.12,6.93-1.82,10.37-2.15,10.43-5.85,20.27-11.95,29.06-2.74,3.96-5.79,7.69-8.68,11.55-.51.68-.93,1.44-1.43,2.24,1.57.7,2.51-.22,3.46-.75,4.67-2.62,8.98-5.77,13.12-9.15,7.46-6.11,14.85-12.29,22.29-18.42,4.71-3.89,8.37-8.6,10.66-14.25,1.46-3.61,2.72-7.32,3.75-11.08,2.57-9.44,5.66-18.67,9.95-27.49.31-.64.89-1.28.38-2.39-.62.45-1.31.77-1.73,1.3-3.44,4.26-6.92,8.48-10.2,12.85-4.85,6.48-8.72,13.58-12.46,20.74-3.13,6.01-6.47,11.89-10.52,17.34-.32.44-.58,1.21-1.57.75.21-1,.4-2,.65-3.01,1.15-4.79,2.54-9.56,3.43-14.42,2.14-11.59,6.68-22.13,13.15-31.91,4.39-6.62,8.72-13.28,13.22-19.83,5.23-7.63,10.76-15.04,16.87-22.01,2.06-2.35,4.25-4.58,6.45-6.8.88-.89,1.77-1.9,3.44-2.16.01.87.09,1.6.04,2.32-.18,2.48-.39,4.94-.6,7.41-.67,8.1-2.24,15.98-5.93,23.31-4.19,8.32-6.4,17.31-8.73,26.25-.17.68-.02,1.45-.02,2.39,1.8-.57,2.62-1.96,3.56-3.15,2.35-2.95,4.61-5.98,6.93-8.96.25-.31.71-.45,1.37-.87-.07,3.87-1.06,7.1-2.13,10.28-3.46,10.4-9.09,19.59-16.24,27.83-3.91,4.52-8.16,8.76-12.39,13.01-5.53,5.56-10.49,11.58-14.81,18.12-2.3,3.48-4.63,6.93-7.01,10.36-5.84,8.4-12.76,15.78-20.67,22.26-12.4,10.15-26.11,18.08-40.91,24.08-10.84,4.39-21.84,8.4-32.79,12.52-7.06,2.65-14.14,5.22-21.21,7.84-.22.09-.47.15-.68.26,7.6.19,15.19.38,22.78.55h.03c1.29-.12,2.56-.27,3.84-.42,6.44-.79,12.87-1.82,19.29-2.84,6.81-1.08,13.62-2.28,20.2-4.33,6.7-2.09,13.3-4.48,19.95-6.72.82-.27,1.66-.44,2.94-.78-.84,1.8-2.02,2.61-3.11,3.47-3.9,3.09-8.17,5.57-12.68,7.64-4.29,1.98-8.72,3.49-13.2,4.89,19.58.48,39.15.96,58.73,1.43h.05c15.58-2.27,30.29-7.18,44.19-14.53,12.36-6.54,23.87-14.42,34.79-23.09,12.03-9.56,23.76-19.5,35.6-29.3,3.62-2.99,7.15-6.07,10.78-9.04,1.71-1.4,3.49-2.74,5.35-3.93,4.21-2.7,7.07-2.52,11.07.56.83.64,1.65,1.31,2.36,2.06,3.82,4.1,7.61,8.21,11.39,12.35.23.24.3.63.67,1.44-1.9-.94-3.1-2.06-4.39-3.02-3.32-2.52-6.6-5.09-9.95-7.56-1.14-.85-2.39-1.61-3.68-2.19-1.95-.89-3.57-.43-4.79,1.32-.66.95-1.16,2.03-1.63,3.09-2.1,4.83-5.05,9.1-8.63,12.95-1.42,1.52-2.84,3.04-4.24,4.6-.39.44-.69.97-1.5,2.11,3.48-.95,5.9-2.4,8.35-3.77,2.48-1.39,4.68-3.29,7.45-4.3,1.66,2.05,1.22,4.27.74,6.39-.58,2.59-2.03,4.79-3.85,6.7-1.79,1.89-3.64,3.73-5.54,5.51-4.36,4.11-8.78,8.16-13.14,12.28-.46.43-1.25.83-.92,1.91.59-.14,1.12-.18,1.55-.39,2.24-1.05,4.51-2.04,6.68-3.22,4.57-2.49,9.07-5.1,13.63-7.63,1.7-.94,3.43-1.86,5.19-2.69,2.75-1.28,5.56-1.32,8.32,0,1.52.72,3.03,1.5,4.46,2.4,3.12,1.97,6.24,3.95,9.35,5.94-.19-1.01-.37-2-.55-3.03-.98-5.82-1.72-11.75-2.2-17.6-.57-6.91-1.07-15.09-.53-23.3.08-1.04.14-2.1.21-3.16Zm-99.14-38.62c-1.34,5.42-2.57,10.88-4.22,16.21-2.43,7.81-6.97,14.49-12.06,20.8-5.43,6.72-11.62,12.66-18.77,17.51-5.47,3.72-11.14,7.17-16.77,10.67-.69.44-1.39,1.27-2.64.68.91-.97,1.77-1.87,2.64-2.77,3.07-3.18,6.21-6.31,9.22-9.54,4.81-5.21,8.62-11.06,11.15-17.72.5-1.34,1.1-2.65,1.69-3.94,1.61-3.66,4.12-6.6,7.28-9.01.62-.46,1.25-.94,1.92-1.33,5.89-3.43,10.31-8.24,13.58-14.19,1.7-3.07,3.66-5.99,5.51-8.97.33-.52.53-1.2,1.5-1.29,0,.99.18,1.99-.03,2.89Z"/>
  <path class="cls-1" d="m907.93,536.81c-38.81-20.08-77.62-40.15-116.39-60.31-1.14-.59-2.34-1.92-2.65-3.14-6.85-26.58-17.04-51.81-31.29-75.26-20.98-34.5-48.5-62.76-82.2-85.07-25.69-17-53.38-29.36-83.23-36.84-3.29-.83-4.5-2.86-5.77-5.31-14.87-28.94-29.73-57.89-44.62-86.82-5.39-10.46-10.84-20.9-16.41-31.64-2.01,3.64-3.95,6.96-5.71,10.37-18.81,36.57-37.57,73.16-56.43,109.69-.65,1.26-1.99,2.56-3.3,3.01-11.87,4.01-24.03,7.27-35.69,11.82-40.38,15.78-74.52,40.53-103.09,73.05-28.93,32.93-48.4,70.85-59.7,113.11-.3,1.14-1.31,2.42-2.35,2.96-32.95,17.08-65.95,34.07-98.95,51.08-6.06,3.13-12.14,6.21-18.18,9.31h12.58c13.23-.01,26.45.05,39.67-.11,2.71-.04,5.56-.62,8.09-1.61,11.67-4.58,23.25-9.4,34.89-14.11,4.33-1.75,8.7-3.43,13.73-5.41-1.01,7.4-1.91,14.05-2.86,21.09,1.63,0,3.12,0,4.55,0h.26c117.23.19,234.45.4,351.68.6,5.46.01,10.93.02,16.39.03,24.31.04,48.62.08,72.93.12,5.26.01,10.54.02,15.8.04,55.03.09,110.06.18,165.09.27h1.44c5.1.03,10.19.04,15.29.06,5.8.02,11.61.01,18.21.01-1.09-.6-1.43-.81-1.78-1Zm-384.23-282.05c.66-14.54,1.48-28.91,2.46-43.09,7.57,17.37,15.15,34.75,22.72,52.13-5.47-.14-11.12-.16-16.93-.04-2.92.06-5.82.15-8.64.28.12-3.09.26-6.18.39-9.28Zm-232.74,219.26c.03-.09.06-.18.09-.27-.07.22-.13.44-.21.66.04-.14.08-.27.12-.39Zm-1.73,5.75c.11-.33.2-.69.3-1.03.1-.34.2-.69.3-1.04.08-.25.16-.51.24-.77.08-.26.16-.52.24-.79.05-.17.11-.34.17-.52-.22.7-.43,1.4-.64,2.09-.38,1.29-.75,2.56-1.1,3.79.16-.57.32-1.15.49-1.73Zm-2.09,7.74c.03-.12.06-.25.1-.38-.09.36-.18.71-.26,1.06.06-.23.11-.46.16-.68Zm431.24,45.64h-.01c-6.9-4.06-13.58-8.47-20.08-13.15-8.15-5.87-15.97-12.15-22.96-19.39-.88-.9-1.7-1.87-2.87-3.16,2.06-.1,3.17.91,4.36,1.54,7.65,4.06,15.51,7.62,23.59,10.67,4.75,1.81,6.76,2.41,12.03,4.15,15.07,5,24.27,9.97,33.61,14.22,5.04,2.29,10.06,4.34,14.91,6.16-14.19-.34-28.38-.68-42.58-1.04Zm49.56-15.14h0c-14.17-10.65-26.94-22.81-38.29-36.47-5.36-6.46-10.5-13.08-15.68-19.69.08.62.14,1.27.16,1.91,0,.2-.02.4-.05.67l-.04.38-.15,1.86-1.5-1.12c-.7-.53-1.03-1.12-1.29-1.58-.07-.14-.14-.26-.22-.39-.25-.37-.47-.75-.71-1.13-.15-.25-.29-.48-.44-.73-.04-.06-.08-.13-.12-.19l.13,1.14-.66.32c-.23.12-.47.17-.68.17-.54,0-.97-.28-1.26-.85-.54-.87-1.81-2.94-1.94-3.16v.48l-.07,2.82-1.77-2.18c-.54-.68-1.04-1.33-1.53-1.98-.36-.47-.71-.92-1.06-1.37l-.11,1.65-1.46-.87c-.73-.44-1.28-.99-1.78-1.46-.3-.3-.58-.58-.88-.81,0,0-1.35-1.05-1.63-1.27.9,1.37,1.73,2.92,2.35,4.61.2.6.38,1.17.54,1.72.51,1.92.73,3.7.62,5.4-.13,1.8-.46,3.5-.99,5.11-.92,2.84-2.46,5.39-4.62,7.62-.27.28-.59.34-.77.37l-.12.02-1.48.41.18-1.53c.15-1.22.43-2.39.69-3.52l-.85,1.13-.81-.55c-.27-.18-1.09-.84-.49-1.96.28-.8.56-1.61.84-2.43-.07.07-3.03,2.94-3.03,2.94l1.97-6.88h-.46s-.17.01-.17.01c-.37,0-.63-.16-.76-.29-.25-.24-.39-.57-.38-.95.01-.22.03-.43.07-.63,0,0,.39-2.38.44-2.69l-.08.1-.79-.5c-.84-.55-.76-1.38-.73-1.66-.03-.41-.01-.76.01-1.12.02-.46.01-.91-.02-1.36-.08-1.16-.3-2.3-.66-3.41-.19-.57-.38-1.08-.61-1.52-.59.9-1.16,1.84-1.71,2.8-1.43,2.47-2.76,5.13-3.99,8.05-1.75,4.14-3.23,8.27-4.4,12.26-.11.34-.23.67-.36,1.02l-.46,1.27h-.01l-.12.44c-.15.68-.33,1.35-.49,2.02-.37,1.48-.75,3.02-1.07,4.52-.53,2.45-.94,4.62-1.25,6.65-.31,1.97-.57,4.09-.86,6.89-.19,1.85-.43,4.28-.55,6.75-.08,1.55-.09,3.14-.1,4.67-.01.69-.01,1.38-.02,2.05v.5s-.4.31-.4.31c-.07.05-.15.11-.22.16l.54.16.08.67c.13,1,.23,2.01.32,3.02.05.41.09.8.13,1.21.09.86.19,1.73.31,2.6.27-.63.58-1.29.93-1.95.43-.81.91-1.64,1.48-2.44l.11-.14c.52-.73,1.11-1.56,2.11-2.36l2.4-1.91-.74,2.96c-.22.87-.53,1.62-.8,2.27-.2.49-.39.94-.52,1.39l-.23.79c-.12.4-.23.79-.35,1.18-.13.49-.25.97-.34,1.46-.01.08-.02.17-.04.24.39-.44.81-.86,1.23-1.28.39-.37.78-.73,1.18-1.08.86-.76,1.77-1.49,3.13-1.99l2.1-.77-.77,2.09c-.23.66-.54,1.05-.77,1.33l-.13.16c-.16.22-.32.43-.49.64-.14.18-.29.36-.43.56-.17.21-.33.44-.48.67-.08.12-.18.24-.25.36-.27.41-.52.81-.77,1.23-.11.19-.22.4-.33.61.11-.07.2-.14.3-.2.54-.33,1.12-.63,1.73-.91.27-.12.56-.23.87-.34.14-.06.26-.11.42-.16l.82-.31c1.21-.46,2.42-.92,3.63-1.38-.94,1.1-1.69,1.97-2.16,2.52-1.53,1.77-2.16,2.46-2.95,3.64-.35.51-.63.98-.83,1.34-.37-.07-.74-.13-1.14-.2.63-1.97,2.24-3.1,3.67-4.79-.04-.02-.09-.03-.13-.05-.76.28-1.28.45-1.77.67-.55.26-1.1.54-1.62.86-.52.31-.99.7-1.5,1.04-.48.32-.79.87-1.56,1.1.19-.58.29-1.01.45-1.41.18-.47.37-.93.59-1.37.19-.41.39-.8.62-1.18.25-.44.52-.86.79-1.28.05-.08.11-.16.18-.25.18-.28.38-.57.59-.84.3-.4.62-.78.92-1.18.24-.33.54-.62.76-1.23-1.23.46-2.04,1.12-2.81,1.79-.29.26-.57.53-.85.8-.53.5-1.04,1.01-1.53,1.54-.68.77-1.27,1.62-2.02,2.58-.33-1.44.13-2.6.34-3.76.1-.59.24-1.17.41-1.75.17-.59.35-1.19.53-1.78.33-1.15.95-2.2,1.3-3.62-.95.77-1.48,1.55-2.03,2.3-.53.74-.97,1.52-1.39,2.31-.61,1.17-1.14,2.38-1.6,3.62-.14.37-.32.73-.63,1.38-.58-2.31-.82-4.52-1.04-6.71-.11-1.18-.23-2.35-.37-3.52-.88-.27-1.73-.52-2.57-.79-.2-.06-.45-.1-.34-.47.87-.45,1.98.05,2.9-.67.03-2.21.01-4.49.12-6.76.1-2.27.31-4.54.54-6.81.24-2.31.52-4.63.87-6.93.35-2.25.79-4.49,1.26-6.72.48-2.2,1.05-4.39,1.58-6.57-.38-.32-.69-.56-.97-.83-.24-.21-.46-.45-.76-.76.81.1,1.46.18,2.16.27.19-.53.38-.99.52-1.45,1.24-4.21,2.74-8.33,4.45-12.38,1.23-2.92,2.62-5.76,4.23-8.49.52-.9,1.08-1.81,1.66-2.69.23-.34.37-.83.94-.87.69.82,1.07,1.81,1.42,2.8.38,1.16.61,2.34.69,3.55.04.51.05,1.02.03,1.54-.01.33-.03.66,0,.99.02.3-.16.66.25.93.8-1,1-2.33,1.83-3.32.07.12.1.17.11.21.01.05.02.11.01.16-.07.67-.14,1.33-.23,1.98-.27,1.7-.56,3.4-.83,5.1-.03.17-.04.33-.05.5,0,.05.01.12.04.15.03.02.11,0,.26,0,1.07-1.19,1.63-2.83,2.94-3.98-.77,2.7-1.54,5.39-2.42,8.46.45-.44.66-.59.81-.79.65-.84,1.26-1.69,1.92-2.52.18-.22.44-.39.67-.58-.05.36-.05.72-.17,1.05-.69,2.05-1.43,4.08-2.12,6.13-.06.19-.35.45.08.74.74-.97,1.46-1.94,2.21-2.9.13-.19.24-.5.61-.33-.25,2.41-1.09,4.71-1.39,7.16.22-.07.35-.05.41-.12,2.21-2.29,3.7-4.89,4.55-7.77.4-1.38.67-2.81.77-4.31.1-1.67-.11-3.29-.54-4.88-.16-.61-.35-1.21-.57-1.81-.66-1.86-1.6-3.53-2.71-5.11-.57-.83-1.18-1.63-1.82-2.42-.14-.17-.47-.3-.27-.68,1.07.37,2.02.94,2.93,1.58.28.19.55.4.83.61.65.49,1.3,1,1.94,1.5.86.66,1.52,1.56,2.56,2.2.07-.85-.38-1.4-.58-2.01-.2-.62-.44-1.22-.66-1.83,2.21,1.84,3.71,4.21,5.68,6.64.04-1.81-.72-3.17-.7-4.93.46.6.78.97,1.03,1.37,1.18,1.89,2.33,3.78,3.5,5.68.13.19.2.54.62.33-.15-1.34-.31-2.68-.49-4.29.74.58,1.02,1.19,1.38,1.72.39.55.74,1.12,1.09,1.68.39.61.74,1.24,1.14,1.84.35.53.56,1.17,1.27,1.71.04-.43.08-.69.08-.94-.03-1.28-.21-2.5-.5-3.68-.66-2.71-1.98-5.16-3.96-7.34-2.67-2.93-6.05-4.64-9.83-5.62-1.5-.4-3.03-.69-4.59-.76-.61-.03-.6-.06-1.23-.5,1.54-.59,3.14-.78,4.72-1.04,1.62-.26,3.3-.06,5.14-.41-.39-.27-.59-.44-.83-.56-.69-.34-1.4-.66-2.1-.99-.18-.08-.45-.1-.31-.47,2.6-.14,5.13.68,7.99.88-.71-.74-1.4-1.05-2.02-1.46-.64-.41-1.38-.65-2.08-1.42,2.93.13,5.49,1.07,8.4,1.25-.59-.71-1.23-.94-1.77-1.28-.55-.34-1.11-.67-1.89-1.14.86-.13,1.44.01,2.01.06.61.05,1.22.09,1.83.13.62.04,1.23.05,1.83.11,1,.11,1,.12,1.7-.11-.43-.56-1.05-.81-1.61-1.14-3.6-2.17-7.53-2.93-11.68-2.42-2.72.35-5.28,1.31-7.61,2.77-1.45.91-2.81,1.97-4.22,2.95-.16.12-.29.37-.62.13.82-1.26,1.8-2.36,2.77-3.48,1-1.14,2.14-2.16,3.27-3.62-1.59.35-2.69,1.18-4.32,1.47.76-.64,1.26-1.08,1.77-1.49.47-.39.94-.78,1.42-1.16.52-.42,1.04-.83,1.55-1.25.5-.42,1.06-.76,1.57-1.45-1.52-.04-2.64.83-4.17.93,1.98-1.74,4.08-3,5.97-4.85-1.29-.02-2.14.77-3.42.85.6-.68,1.04-1.16,1.48-1.65.49-.54,1-1.06,1.46-1.6.44-.48.99-.89,1.23-1.65-.35.02-.64-.01-.89.06-1.66.5-3.24,1.17-4.65,2.17-.78.56-1.45,1.22-1.83,2.12-.06.16-.25.28-.4.43-.25-.39-.44-.7-.68-1.07-.52.68-.97,1.24-1.39,1.83-.41.59-.81,1.19-1.19,1.81-.37.61-.72,1.25-1.04,1.89-.34.64-.64,1.3-.9,1.97-.25.67-.47,1.37-.67,2.06-.2.69-.28,1.42-.52,2.09-.21.65.05,1.45-.69,2.11-.27-2.48-.82-4.72-1.76-6.85-.96-2.17-2.21-4.12-3.92-5.74-1.72-1.63-3.68-2.85-5.91-3.66-2.91-1.05-5.46-1.44-6.78-.95.88.67,1.79,1.19,2.65,1.77.84.57,1.83.94,2.68,1.94-1.31-.31-2.41-.31-3.78-.32.63.62,1.22.76,1.75,1.01.5.24,1.01.47,1.51.68.56.24,1.15.44,1.69.71.51.26,1.15.32,1.57.89-1.49.31-2.83-.24-4.21-.2-.01.43.27.5.52.62,1.85.87,3.71,1.76,5.56,2.64.27.13.51.33,1.02.66-1.72-.02-3.08-.53-4.78-.57,2.14,1.76,4.51,2.7,6.3,4.47-1.02-.28-1.99-.67-2.97-1.03-.22-.08-.46-.07-.96-.16.74.75,1.3,1.29,1.84,1.85s1.08,1.12,1.57,1.71c.49.57,1.01,1.14,1.38,2.23-.7-.52-1.14-.81-1.55-1.14-1.58-1.24-3.24-2.32-5.07-3.19-2.05-.96-4.1-1.51-6.17-1.68-2.75-.23-5.52.23-8.3,1.48-2.51,1.12-4.76,2.62-6.86,4.36-.17.13-.27.33-.57.7,1.47-.33,2.69-.63,3.92-.88,1.22-.24,2.39-.65,3.85-.76-.88,1.11-2,1.69-2.92,2.92,1.58-.46,2.75-1.06,3.96-1.53,1.23-.47,2.37-1.15,4.03-1.51-.61.59-.95.93-1.3,1.26-.36.33-.76.64-1.12.99-.31.31-.76.55-.94,1.21.43-.13.68-.2.93-.3,2.04-.73,4.07-1.48,6.1-2.2.22-.09.46-.09.88-.17-1.24,1.31-2.8,1.89-3.97,3.3,2.81-.5,5.32-1.34,7.97-1.56-.32.33-.67.57-1.04.79-.33.21-.69.36-1.02.58-.33.22-.82.29-.99.85,1.6.05,3.19-.13,4.87.07.71.08,1.45.24,2.2.51-.65.06-.92.08-1.19.11-.15.01-.32.04-.47.07-2.72.33-5.37.89-7.92,1.89-3.8,1.5-6.76,4-8.75,7.6-1.68,3.01-2.45,6.28-2.64,9.71-.01.13.08.27.18.57.3-.37.5-.6.68-.86,1.14-1.71,2.27-3.42,3.41-5.13.15-.22.26-.5.66-.41-.03.44-.04.88-.08,1.32-.04.44-.13.88-.14,1.33-.03.39-.15.81.19,1.39.31-.68.54-1.18.76-1.66.22-.51.44-1.03.66-1.54.24-.56.47-1.13.71-1.69.21-.5.41-1.03.67-1.52.25-.46.32-1.04.91-1.47,0,.52.01.89,0,1.26-.01.39-.04.78-.06,1.16-.03.45-.09.89-.11,1.34-.01.34-.18.73.16,1.21.26-.42.47-.72.63-1.05.94-1.83,1.86-3.66,2.79-5.5.12-.2.2-.52.65-.41-.19,1.49-.39,3-.59,4.51,1.79-2.01,2.97-4.4,4.76-6.38-.12,1.35-.69,2.61-.78,4.23.46-.55.75-.88,1.02-1.21.9-1.14,1.85-2.22,2.98-3.13.77-.62,1.61-1.08,2.52-1.42.19-.07.36-.14.56-.2.33-.1.71-.21,1.13.16-.27.39-.52.8-.78,1.2-2.18,3.41-4.22,6.88-6.03,10.48-2,3.97-3.81,8.01-5.4,12.16-1.59,4.19-3.02,8.44-4.12,12.86.6.35,1.13.65,1.64.97.16.09.43.16.24.47-.72.23-1.52-.18-2.22.16-1.04,2.98-2.41,10.16-2.27,11.97.85.41,1.72.84,2.58,1.26-.01.07-.03.15-.05.22-.97.03-1.93.06-2.97.09-.46,2.41-.73,4.77-.93,7.14-.09,1.12-.18,2.25-.26,3.37-.09,1.2-.2,2.4-.28,3.6-.18,2.36-.05,4.73-.23,7.07-.17,0-.26.02-.27,0-.27-.41-.57-.82-.79-1.25-2.43-4.67-4.61-9.45-6.57-14.33-.17-.43-.35-.85-.51-1.28-.23-.56-.34-1.17-.89-1.65-.88.11-1.79.22-2.71.34-1.43.17-2.92.35-4.56.56,1.05-.78,1.99-1.2,2.86-1.66.14-.07.28-.15.43-.23,1.03-.61,2.18-1.06,3.05-1.73.06-.21.09-.26.08-.31-1.71-5.33-3.56-10.62-4.84-16.08-.03-.17-.11-.32-.18-.47-.04-.09-.12-.18-.24-.34-.38-.03-.82-.08-1.25-.12-.44-.03-.88-.06-1.33-.09-.44-.04-.88-.1-1.32-.14-.45-.04-.89-.05-1.33-.08-.39-.02-.82.07-1.35-.24,2.07-.92,4.18-1.23,6.05-2.26-.36-1.7-.72-3.33-1.04-4.95-.33-1.63-.59-3.27-.92-4.9-.34-1.62-.39-3.28-.9-4.87-.37-.1-.69-.21-1.01-.27s-.65-.09-.98-.12c-.28-.02-.56-.03-.84-.04-.34-.01-.67.02-1-.02-.29-.04-.64.13-.9-.33.81-.3,1.58-.55,2.33-.88.75-.32,1.64-.37,2.19-1.11-.54-4.87-1.23-9.7-1.27-14.56-.42-.23-.87-.4-1.31-.54-1.22-.38-2.47-.54-3.6-1.15.94-.39,1.91-.42,2.87-.53.62-.09,1.25-.2,1.86-.47-.04-4.36-.15-8.74.24-13.12.04-.44.04-.89.03-1.33,0-.16-.06-.33-.09-.49-1.01-.66-2.32-.65-3.35-1.42.71-.51,1.54-.39,2.33-.46.17-.01.34-.04.51-.07.24-.06.49-.14.72-.3.05-.34.12-.66.16-.99.34-3.32.7-6.63.99-9.95.08-.91.38-1.84.18-2.81-.9-.39-1.76-.78-2.61-1.16-.2-.08-.45-.16-.26-.52,1.03-.2,2.16.03,3.27-.31.32-2.07.6-4.09.96-6.11.29-1.7.64-3.39.99-5.07.06-.27.11-.55.16-.82.43-2,.88-4.01,1.34-6.01.47-1.97.85-3.97,1.59-5.96.4.18.7.31,1,.44,2.15.94,4.11.8,5.76-1.02.12-.12.33-.16.65-.31v1.5c0,.45.04.9.04,1.34s-.02.88-.03,1.33c0,.44-.03.89-.06,1.33-.03.44-.08.88-.11,1.33-.04.44-.08.88-.11,1.33-.02.4-.13.83.13,1.42,1.34-2.11,2.07-4.32,3.35-6.25-.07,2.22-.51,4.36-.85,6.52-.34,2.15-.92,4.28-1.08,6.87.46-.63.7-.91.89-1.22,1.22-1.92,2.43-3.85,3.67-5.76.13-.22.18-.65.69-.56-.22.78-.45,1.53-.68,2.26-.24.79-.5,1.59-.75,2.37-.23.75-.46,1.49-.7,2.23-.25.79-.51,1.59-.77,2.38-.24.74-.5,1.47-.71,2.21-.22.77-.6,1.49-.6,2.62.57-.68.97-1.11,1.33-1.59,1.26-1.63,2.49-3.28,3.73-4.9.14-.18.25-.48.67-.33-.55,1.48-1.08,2.93-1.62,4.38-.52,1.4-1.08,2.79-1.56,4.21-.5,1.45-1.16,2.85-1.52,4.67.44-.45.68-.66.87-.91,1.13-1.44,2.24-2.9,3.37-4.35.17-.22.41-.4.65-.64.05.19.08.24.07.29-.86,3.51-1.72,7.01-2.57,10.51-.08.27-.13.54-.19.81,0,.05.03.11.06.14.03.03.08.06.17.1.11-.09.26-.16.36-.27,2.18-2.4,4.15-4.95,5.65-7.82,1.98-3.79,3.19-7.79,3.26-12.1.06-3.56-.75-6.95-2.11-10.21-2.12-5.03-5.24-9.38-9.22-13.12-.43-.41-.85-.81-1.51-1.44,1.04.16,1.66.51,2.29.83,3.14,1.57,6.02,3.56,8.72,5.81.76.63,1.51,1.29,2.29,1.93.17.13.36.47.7.12-.16-.34-.33-.68-.52-1.03-.17-.34-.37-.68-.57-1.01-.18-.34-.38-.68-.57-1.02-.19-.33-.39-.67-.6-1-.19-.33-.4-.67-.61-.99-.2-.33-.42-.65-.61-.99-.16-.3-.48-.57-.39-1.19.89.86,1.67,1.56,2.39,2.31,2.58,2.69,5.13,5.4,7.69,8.09.24.25.53.46,1.02.87-.48-1.8-1.22-3.17-1.74-4.62-.51-1.44-1.33-2.78-1.71-4.65.52.59.82.89,1.08,1.23,2.45,3.31,4.87,6.62,7.32,9.93.35.47.62,1.02,1.35,1.44-.11-.44-.16-.7-.23-.95-.77-2.43-1.54-4.87-2.29-7.3-.08-.23-.06-.48-.13-1.06.47.56.73.84.95,1.14,1.27,1.83,2.55,3.64,3.8,5.47,1.25,1.84,2.49,3.69,3.74,5.53.13.18.24.51.7.34-.72-2.36-1.45-4.74-2.19-7.18.7.2.98.71,1.33,1.11,2.08,2.33,4.12,4.67,6.18,7,.39.44.74.95,1.36,1.32.2-.66.03-1.17-.09-1.69-.92-4.29-2.69-8.22-5.09-11.87-3.05-4.61-7.04-8.11-12.1-10.38-4.36-1.96-8.96-2.86-13.7-3.18-2.37-.17-4.76-.34-7.14-.16-.11,0-.2-.07-.49-.16.22-.13.34-.25.49-.29,2.32-.57,4.67-1.02,7.06-1.1,2.16-.08,4.33-.01,6.5-.01.23,0,.56.14.65-.3-2.08-1.2-4.41-1.94-6.51-3.18,2.33.27,4.63.65,6.93.99,2.26.33,4.5.83,6.8,1.02-.22-.28-.48-.48-.76-.65-1.81-1.07-3.62-2.15-5.43-3.24-.25-.15-.6-.25-.66-.62.48.05.97.06,1.41.19,3.64.99,7.27,2.01,10.91,3.01.21.05.45.03,1.03.06-2.53-1.91-4.97-3.33-7.19-5.09,4.56,1.11,8.98,2.68,13.89,3.88-1.09-1.07-2.15-1.56-3.09-2.2-1-.67-2.07-1.22-3.29-2.18,2.21.1,4.02.54,5.87.78.96.12,1.93.26,2.89.41-.12-.11-.23-.23-.34-.34,0,0-.02-.01-.03-.02-.69-.67-1.36-1.32-2.05-1.98-.21-.2-.43-.4-.65-.6-.41-.39-.85-.79-1.29-1.21-.05-.04-.1-.08-.14-.12t-.02-.01h0s-.01-.02-.02-.02c-1.18-.53-2.39-1.02-3.65-1.42-4.87-1.54-9.78-1.74-14.76-.54-4.03.96-7.79,2.59-11.27,4.81-2.06,1.3-4,2.8-6.01,4.2-.29.19-.49.59-1.07.47.67-.94,1.44-1.72,2.21-2.47.76-.75,1.51-1.49,2.29-2.19.82-.75,1.69-1.44,2.53-2.17.82-.71,1.75-1.29,2.73-2.33-2.37.36-4.23,1.36-6.64,1.72,1.93-1.39,3.67-2.36,5.37-3.39,1.69-1.01,3.51-1.8,5.4-3.22-2.89.25-5.35.9-7.96,1.28.48-.63,1.08-.78,1.62-1.03,3.06-1.43,6.12-2.86,9.19-4.29.24-.11.53-.19.51-.65-2.43.29-4.85.58-7.6.9,1.42-.88,2.65-1.39,3.85-1.95,1.2-.57,2.42-1.1,3.61-1.69.58-.29,1.21-.53,1.83-.83-.38-.28-.75-.56-1.13-.85h-.01c-.21.02-.43.05-.63.1-.38.06-.76.14-1.14.21-.36.08-.7.19-1.23-.07.5-.35.84-.61,1.19-.86.17-.11.35-.23.52-.34-1.09-.8-2.22-1.62-3.38-2.44-2.97,1.11-5.73,2.66-8.2,4.77-3.36,2.88-5.71,6.47-7.42,10.52-1,2.35-1.65,4.82-2.31,7.28-.11.41-.26.81-.4,1.22-.15-.56-.16-1.09-.15-1.61.1-4.9-.79-9.61-2.75-14.1-2.27-5.25-5.75-9.45-10.71-12.38-3.98-2.35-8.32-3.59-12.88-4.14-.12-.02-.24.1-.52.24.53.42.93.77,1.37,1.1,1.8,1.29,3.61,2.58,5.41,3.88.24.17.6.28.57.69-.54-.05-1.09-.04-1.62-.13-.77-.12-1.51-.35-2.28-.48-.38-.07-.8-.16-1.35.11,1.72,1.12,3.46,1.83,5.13,2.69,1.65.86,3.38,1.59,4.92,2.68-2.37-.05-4.66-.69-7.1-.83.28.6.78.71,1.2.94,3.02,1.64,6.06,3.26,9.08,4.91.31.17.59.41,1.2.83-1.65-.23-2.84-.65-4.08-.91s-2.45-.76-4.01-.73c.7.68,1.31,1.05,1.89,1.46,2.39,1.71,4.79,3.41,7.18,5.13.32.24.6.54.9.81-2.13-.49-4.04-1.48-6.46-2.19.66.68,1.05,1.1,1.48,1.51,3.1,3.01,5.57,6.46,7.46,10.35.11.22.32.44.1.79-1.12-1.35-2.18-2.69-3.31-3.98-3.26-3.74-6.85-7.11-11.16-9.66-5.25-3.11-10.92-3.89-16.85-3.18-4,.47-7.75,1.83-11.35,3.63-.23.11-.4.3-.72.53,1.01.38,1.9.33,2.78.35,2.39.08,4.78.12,7.16.19.41.01.86-.06,1.33.38-1.05.46-2.01.86-2.94,1.3-.97.46-2.02.74-3.09,1.58,2.28,0,4.24-.33,6.22-.56,2.09-.24,4.17-.57,6.26-.84.27-.03.62-.17.89.27-.65.32-1.23.61-1.83.89-.6.29-1.2.56-1.8.84-.61.28-1.21.56-1.8.86-.57.28-1.23.44-1.97,1.18,4.93-.32,9.49-.97,14.47-1.29-.65.35-.92.51-1.22.64-2.02.77-4.04,1.53-6.05,2.32-.26.1-.48.31-.92.61,1.1.09,1.91.19,2.74.24.89.05,1.79.05,2.67.08.84.03,1.67.05,2.5.09.89.07,1.77.17,2.66.21,1.67.08,1.67.07,2.38.54-.26.07-.47.13-.67.18-1.68.36-3.37.7-5.05,1.06-.22.06-.41.25-.75.46.89.18,1.59.31,2.29.46,3.62.74,7.02,2.07,10.18,3.97.23.14.59.21.56.58-2.21-.59-4.38-1.21-6.58-1.74-2.1-.5-4.22-.94-6.37-1.09-2.27-.16-4.55-.19-6.83-.06-5.17.3-9.9,1.86-14.14,4.83-5.82,4.11-9.75,9.64-12.21,16.26-.1.25-.1.52-.18,1.03.73-.53,1.27-.91,1.78-1.3.57-.44,1.13-.9,1.69-1.36.52-.41,1.04-.84,1.56-1.26.56-.46,1.11-.92,1.66-1.38.52-.42,1.02-.86,1.56-1.26.54-.41.99-.97,1.97-1.31-.63,1.42-1.33,2.48-1.88,3.61-.55,1.12-1.25,2.16-1.62,3.81,3.94-3.8,7.15-7.77,10.92-11.21-.19,1.06-.76,1.94-1.19,2.87-.46.95-.94,1.89-1.39,2.84-.44.93-.98,1.83-1.35,3.16.53-.44.83-.64,1.08-.89,1.94-1.92,3.86-3.85,5.8-5.75,1.43-1.4,2.87-2.79,4.32-4.17.12-.11.27-.41.56-.06-.53.88-1.08,1.78-1.63,2.67-.58.95-1.18,1.89-1.76,2.83-.54.88-1.15,1.72-1.63,3,.58-.38.9-.55,1.19-.77,1.46-1.1,2.9-2.23,4.38-3.31,1.98-1.44,3.98-2.85,5.97-4.26.21-.14.42-.39.81-.09-.3.38-.58.78-.89,1.14-1.02,1.18-2.06,2.34-3.06,3.52-.16.18-.47.34-.2.75.29-.13.58-.25.87-.39,1.15-.55,2.28-1.15,3.45-1.66,3.49-1.5,7.08-2.61,10.93-2.59.22,0,.54-.14.7.29-.48.16-.94.3-1.4.46-2.14.78-4.31,1.47-6.4,2.36-5.25,2.22-10.1,5.11-14.22,9.11-3.11,3.02-5.56,6.49-7.06,10.58-1.5,4.11-2.24,8.36-2.29,12.72-.01,1.09.05,2.18.14,3.25h0c.3.32.61.63.91.93.31.31.62.61.92.91.3-.96.56-1.88.88-2.79.61-1.75,1.04-3.56,2.04-5.56.4,1.31.29,2.38.51,3.37.22,1.04.16,2.13.75,3.36.66-2.55.89-4.92,1.3-7.25.41-2.3.65-4.63,1.29-7.3.65,3.2.81,6.1,1.62,9.18.21-.66.37-1,.44-1.37.58-3,1.14-6,1.74-9,.25-1.25.39-2.55.93-4.13.55,3.19.4,6.1,1.19,9.17.23-.66.4-1.06.52-1.47,1.13-3.66,2.24-7.32,3.37-10.98.13-.38.17-.83.57-1.13.05.15.1.2.1.25-.03,1.89-.05,3.78-.07,5.67,0,.45.01.88.02,1.33,0,.16.03.33.06.49,0,.05.02.13.05.16.04.03.1,0,.25.03.63-1.25,1.08-2.61,1.63-3.93.58-1.38,1.12-2.77,1.73-4.15.56-1.29,1.02-2.66,1.93-4.02.14.9-.02,1.55-.1,2.2-.19,1.49-.35,2.98-.51,4.47-.02.17-.11.47.24.47.05-.05.1-.07.12-.12.46-.88.9-1.77,1.36-2.66.62-1.18,1.24-2.36,1.88-3.53.32-.58.66-1.15,1-1.72.21-.34.43-.66.63-.99.22-.32.45-.64.67-.95.1-.14.21-.26.33-.38.03-.04.08-.09.13-.1.04,0,.11.03.22.07,0,.57,0,1.16.01,1.75.02,1.43.64,2.6,1.78,3.41.57.42,1.27.67,1.92.96.44.18.91.31,1.4.47-.08.3-.13.52-.2.73-.87,2.62-1.69,5.25-2.46,7.9-1.05,3.55-2,7.12-2.88,10.72-1.17,4.82-2.16,9.69-2.96,14.61-.09.59-.19,1.18-.28,1.77-.08.58-.17,1.16-.26,1.73-.51,3.4-.93,6.79-1.25,10.2-.13,1.27-.22,2.54-.31,3.81-.19,2.61-.33,5.22-.51,7.83-.51,7.73-.1,15.44.53,23.14.47,5.86,1.2,11.69,2.18,17.51.23,1.32.47,2.65.71,3.98.93,5.05,2,10.09,3.27,15.07.78,3.07,1.63,6.12,2.45,9.17.11.43.26.82.15,1.3-.34,1.56-.63,3.14-.99,4.98-.66-1.61-1.15-3.03-1.81-4.35-.67-1.34-1.46-2.61-2.29-3.86-.81-1.22-1.75-2.35-3.26-3.49.77,1.65,1.43,2.93,1.96,4.24.54,1.34,1.03,2.7,1.39,4.1.35,1.35.83,2.71.71,4.44-.75-.91-1.32-1.65-1.94-2.33-.64-.69-1.29-1.39-1.99-2.01-.76-.65-1.56-1.26-2.38-1.82-1.23-.85-1.53-.96-2.6-1.12.35.64.88,1.02,1.33,1.48,2.1,2.12,3.71,4.56,4.85,7.31.08.21.04.46.08.93-.65-.54-1.13-.93-1.59-1.31-1.44-1.15-3.01-2.09-4.75-2.72-.21-.08-.5-.24-.66.1,3.27,3.1,3.52,3.39,4.04,4.8-.73.44-1.58.46-2.37.63-.69.14-1.36.29-2.04.43-50.8-1.23-101.6-2.46-152.4-3.7h-.05c-19.58-.47-39.15-.95-58.73-1.43h0c-12.4-.3-24.81-.6-37.22-.91h-.03c-7.59-.17-15.18-.36-22.78-.55-6.89-.16-13.77-.33-20.66-.5h-.01c-.06.03-.12.06-.18.08-2.75,1.08-18.52,7.19-33.01,10.09-7.24,1.45-13.29,2.02-16.4,2.25-.91.06-1.58.1-1.93.11.05-.81.1-1.63.16-2.48.04-.62.08-1.27.14-1.91.14-1.9.3-3.89.51-5.96.1-1.11.22-2.25.35-3.41.22-2.07.48-4.21.77-6.43.68-5.11,1.54-10.58,2.65-16.35,1.7-8.88,3.95-18.43,6.98-28.43-.17.54-.35,1.08-.52,1.62.16-.54.34-1.08.51-1.63.12-.36.22-.72.34-1.09.08-.3.17-.6.28-.9.08-.28.17-.57.26-.85.04-.15.08-.29.13-.44.1-.36.22-.72.33-1.08h0c.37-1.19.75-2.36,1.13-3.52.26-.79.52-1.58.79-2.37.12-.38.25-.76.38-1.14,0-.01.01-.02.01-.04.17-.47.33-.94.5-1.41.18-.52.37-1.05.56-1.57.26-.72.53-1.45.8-2.17.16-.45.33-.9.51-1.34.34-.93.69-1.85,1.05-2.76.23-.57.45-1.15.69-1.72.22-.57.46-1.14.69-1.71.47-1.14.94-2.27,1.42-3.4,1.59-3.72,3.27-7.38,5.04-11,0,0,.01-.02.01-.02,0-.02.02-.04.03-.06.01-.02.02-.05.03-.07.02-.04.03-.07.04-.1.02-.04.04-.07.05-.11.01,0,.01-.01.01-.01.03-.05.05-.11.08-.16.46-.99.91-1.97,1.37-2.92.03-.06.07-.13.09-.19.22-.44.43-.88.64-1.31.24-.48.47-.96.7-1.43.29-.55.56-1.1.84-1.64.45-.87.89-1.73,1.34-2.55.06-.12.12-.24.19-.35.17-.32.35-.64.52-.96.82-1.47,1.66-2.94,2.51-4.39,2.55-4.37,5.24-8.62,8.05-12.78.94-1.38,1.89-2.76,2.85-4.12.97-1.36,1.94-2.71,2.93-4.05s2-2.67,3.01-3.99c.36-.46.72-.93,1.08-1.39.66-.85,1.33-1.69,2-2.53-.3.38-.6.76-.89,1.15.29-.38.59-.77.9-1.15,1.98-2.5,4.02-4.97,6.14-7.44.41-.47.81-.93,1.21-1.41,1.56-1.76,3.14-3.5,4.78-5.25.53-.57,1.07-1.14,1.61-1.71.54-.57,1.09-1.13,1.63-1.7.62-.63,1.24-1.27,1.86-1.9.31-.31.62-.63.94-.95.31-.32.62-.64.94-.95h.01c1.32-1.29,2.67-2.59,4.04-3.87,1.34-1.27,2.69-2.53,4.08-3.78l.57-.54c.19-.18.38-.36.58-.53.26-.23.54-.47.83-.73.29-.25.59-.52.91-.79.31-.27.64-.56.98-.85.34-.3.69-.6,1.05-.91.07-.07.15-.13.23-.19s.15-.13.22-.2c.15-.13.3-.26.45-.4.3-.26.61-.53.92-.79.29-.25.58-.49.87-.72h.01c.09-.07.17-.15.25-.21.09-.07.18-.14.26-.2.07-.05.13-.09.19-.14.03-.03.06-.06.09-.08.15-.11.29-.22.44-.33.23-.18.47-.35.7-.54.25-.19.49-.39.74-.59.7-.57,1.41-1.13,2.18-1.72.1-.08.21-.16.31-.24.1-.08.21-.16.31-.24.54-.44,1.09-.87,1.65-1.3h.01c1.52-1.18,3.06-2.34,4.61-3.48,1.55-1.15,3.11-2.26,4.68-3.36.79-.54,1.58-1.09,2.37-1.63.2-.14.4-.27.6-.41.39-.26.79-.53,1.19-.79.2-.13.4-.27.6-.4,1.59-1.06,3.2-2.1,4.8-3.11.41-.26.81-.51,1.22-.76.21-.13.41-.26.61-.38.2-.13.4-.26.61-.38.32-.2.64-.39.96-.58.32-.2.64-.38.96-.57.52-.32,1.05-.64,1.57-.94.12-.07.24-.14.36-.21.21-.13.43-.25.64-.37.47-.28.95-.56,1.42-.83.49-.28.98-.56,1.48-.84,1.15-.65,2.31-1.29,3.47-1.92,1.16-.64,2.33-1.26,3.5-1.87.18-.09.35-.19.54-.28.69-.36,1.4-.72,2.1-1.08.25-.12.5-.24.75-.37.35-.18.69-.35,1.04-.53.15-.07.3-.15.46-.23.5-.24,1-.48,1.5-.72h.01c.33-.17.66-.33,1-.49.7-.34,1.41-.67,2.12-1,.63-.3,1.27-.59,1.91-.89.63-.29,1.26-.57,1.9-.86h.01c.51-.23,1.03-.46,1.55-.68.84-.37,1.68-.73,2.52-1.09.06-.03.13-.06.2-.09,1.17-.5,2.35-.98,3.53-1.46,1.75-.71,3.5-1.4,5.26-2.06.59-.23,1.18-.45,1.77-.67.74-.27,1.48-.54,2.21-.8.37-.14.75-.27,1.13-.4.96-.34,1.91-.67,2.87-.99.67-.22,1.34-.45,2.01-.67.22-.07.45-.15.68-.22.45-.15.9-.3,1.35-.44,1.34-.44,2.68-.86,4.03-1.26h.01c.28-.09.54-.17.82-.25.34-.1.68-.2,1.02-.3.34-.1.68-.2,1.02-.3.01,0,.02-.01.03-.01h.01s.02-.01.04-.02c.05-.01.11-.03.17-.05.08-.02.17-.04.25-.07h.01s.02-.01.03-.01h.02c.06-.02.13-.04.19-.06.02-.01.03-.01.04-.01s.02,0,.04-.01h.01s.04-.01.06-.02c.07-.02.13-.04.2-.06.3-.09.61-.18.91-.26.01,0,.01,0,.02,0,.01,0,.03,0,.04-.02.01,0,.01-.01.02-.01.05-.01.1-.02.15-.04.32-.09.64-.18.97-.26.02-.01.04-.01.06-.02l.12-.03c.07-.02.15-.04.22-.06.02,0,.03,0,.05-.02.02,0,.04-.01.06-.01.01,0,.02-.01.03-.01.1-.03.2-.06.3-.08.13-.04.26-.08.39-.11.55-.16,1.12-.3,1.67-.45,3.7-.99,7.46-1.91,11.34-2.74.8-.17,1.64-.33,2.46-.5,3.33-.67,6.74-1.26,10.19-1.81,1.84-.29,3.71-.55,5.59-.8,2.92-.39,5.88-.72,8.88-1,1.78-.18,3.54-.34,5.34-.48.95-.07,1.9-.13,2.86-.19,1.91-.12,3.84-.21,5.78-.28.97-.03,1.94-.06,2.92-.09.77-.01,1.5-.09,2.26-.1,1.24-.02,2.44.02,3.67.02.74,0,1.47,0,2.21.01,2.02.02,4.02.05,6,.12,1.39.06,2.79.11,4.16.18,1.27.07,2.53.13,3.79.22,2.32.16,4.63.34,6.92.56.21.03.42.04.64.06,1.87.18,3.7.37,5.56.61.08.01.16.02.23.03.01,0,.03,0,.04.01.1.01.2.02.3.03.38.05.77.1,1.15.15.17.01.35.04.53.06.17.02.35.05.52.07.04,0,.07.01.1.02.04,0,.07.01.1.01h.01s.02,0,.02,0h.05s.03,0,.04.01c.03,0,.06.01.09.01.14.02.27.04.4.05.4.05.8.11,1.2.17.05,0,.09,0,.13.02.02,0,.03.01.04.01.03,0,.06.01.08.01.04,0,.08,0,.11.01h.02s.02.01.03.01.02,0,.03,0h.02s.03,0,.04.01c.06,0,.12.01.18.02.02,0,.04,0,.06.01.14.02.28.04.42.06.01,0,.03,0,.04.01h.04s.02,0,.03.01c.21.03.42.06.63.09h.01c.66.1,1.34.19,2,.3.06.01.13.02.2.03.02.01.04.01.05.01h.01s.04.01.06.01c.04,0,.07,0,.11.02.24.04.49.07.73.12.33.05.66.1.99.16.04,0,.07.01.11.02.18.03.35.06.53.09h.01s.03.01.06.01h0c.25.04.51.09.77.13.38.07.78.14,1.17.21s.78.13,1.17.21c.42.07.84.16,1.26.25.04.01.07.01.11.02.52.1,1.04.2,1.56.3.26.05.52.1.77.16.26.05.52.1.78.15.06.01.12.02.17.03.11.02.22.04.32.07.26.04.52.09.77.15.42.08.85.18,1.28.28.99.21,1.97.43,2.95.65h.01c.48.11.98.22,1.48.33.26.07.53.13.79.2.09.02.17.04.25.06h.01s.05.02.08.02c.01.01.02.01.03.01t.02.01c.13.03.27.06.4.09.41.1.83.2,1.24.31.42.1.83.2,1.25.31.54.13,1.08.26,1.62.4,1.01.27,2.02.53,3.02.81.13.03.25.07.38.1.03,0,.05,0,.07.02.02.01.04.01.07.02.13.05.27.09.41.12.14.04.28.08.41.12.53.15,1.07.29,1.59.45.27.08.54.16.81.24.26.07.53.15.79.23t.02.01s.03.01.05.01c.02.01.04.01.06.02.02,0,.04.01.05.01.13.04.25.07.38.12.12.03.23.06.35.1.03.01.07.02.1.03.46.14.91.28,1.37.43.33.09.66.2.99.3.12.03.25.07.37.11.15.05.29.1.45.15.51.16,1.02.33,1.53.5.21.07.41.13.62.2.2.06.4.12.61.19.21.07.41.14.62.21h.01c.09.03.18.06.28.1h.01s.07.02.1.03c.1.03.19.07.28.1.09.03.19.06.28.09l.09.03c.11.03.22.07.33.11.05.02.11.04.16.06.05.02.11.04.16.06h.01c.11.02.21.06.31.1.29.1.57.2.85.3.29.1.58.2.86.3.02.01.04.02.07.03.07.02.15.04.22.07.09.04.19.07.29.11.04.01.09.03.14.05.03,0,.07.02.1.03,0,.01.03.02.05.02t.02.01h.02s.03.02.05.02c0,0,.01,0,.01.01h.01s.07.02.1.04c.02.01.04.02.07.02,0,0,.01,0,.01.01h.03s0,.01.01.01c.01.01.03.01.04.02h.02c.07.03.14.05.21.07.33.12.66.24.99.37.33.11.66.23.99.36.02,0,.03.01.05.02.04.01.07.02.11.04t.02.01s0,0,.02,0c.02,0,.04,0,.05.01.02,0,.03.01.04.02.02,0,.03,0,.04.01.03.01.06.01.08.03.01,0,.03.01.04.02.02,0,.05.01.07.02h.01c.24.09.48.18.72.28.24.09.48.19.73.28.49.19.99.37,1.48.56.09.03.17.07.27.11.22.08.44.17.67.26.23.09.45.17.68.26.35.14.7.28,1.05.43.19.08.38.15.58.24h.01s.01.01.02.01c.14.06.29.12.43.17.14.06.28.12.42.17.13.05.27.11.41.17.11.04.21.09.33.13.03,0,.06.02.09.04.02.01.03.01.05.02.03.02.06.03.09.05.17.07.35.14.53.22h.01s.07.02.1.04h.01s0,0,.01,0,.01.01.02.02h.02s.01.01.01.01t.02.01h.01c.07.01.14.04.2.08.03,0,.05.02.08.03.01,0,.02.01.03.01.05.02.11.05.16.07.02.01.03.01.05.02.04.02.08.03.12.05.05.02.1.04.14.06.05.02.09.04.13.06.01,0,.03,0,.04.02.04.01.08.03.11.04h.01s.07.04.1.05c.02.01.05.02.08.03.02,0,.04.02.07.03,0,0,.02.01.03.02h.01c.07.03.14.05.21.09.39.14.76.31,1.14.47.16.07.32.14.48.21l.51.21c.4.17.8.34,1.2.53.51.22,1.02.44,1.53.67,1.07.48,2.14.97,3.2,1.46.36.15.71.32,1.05.49.35.16.71.33,1.05.5.2.09.39.18.59.27.23.11.46.22.69.34,1.28.61,2.55,1.24,3.81,1.88.03.01.07.02.1.05,1.25.63,2.49,1.28,3.73,1.93,2.19,1.14,4.36,2.33,6.51,3.56.57.32,1.15.65,1.72.98.88.51,1.76,1.02,2.64,1.55.88.52,1.76,1.04,2.63,1.58h.01c.72.44,1.45.89,2.17,1.36.28.17.56.34.83.52.05.03.11.07.16.1.44.28.89.56,1.33.85.5.32,1,.64,1.49.96,1.97,1.29,3.93,2.61,5.86,3.95.97.67,1.93,1.35,2.89,2.03,1.32-.5,2.71-.94,4.18-1.3,1.55-.39,3.22-.76,4.97-.8h2.63l-.56,1.42c-.31.78-.86,1.12-1.18,1.33-.06.03-.12.06-.17.1-.27.21-.56.39-.86.57l-1.42.92-1.26.8c.2-.03.4-.05.59-.07.17-.01.33-.02.52-.02h.91s3.03.01,3.03.01l-2.38,1.85c-.47.36-.93.64-1.37.88,5,3.89,9.83,7.97,14.51,12.23,3.13,1.13,6.18,2.68,9.03,4.7.05.04.11.07.17.11.4.25,1.16.71,1.24,1.81l.09,1.3-2.55-.39c.15.14.28.29.42.44t.02.01c.42.42.85.86,1.26,1.28.03.03.05.06.09.09.38.4.76.8,1.16,1.21.68.68,1.34,1.37,1.98,2.06.66.69,1.31,1.38,1.95,2.06.02.03.06.07.09.1.44.47.88.94,1.3,1.42.51.56,1.03,1.12,1.53,1.69.94,1.02,1.85,2.04,2.75,3.07,1.1,1.27,2.14,2.54,3.19,3.82.08.1.16.19.23.28.68.82,1.35,1.63,2,2.45.61.76,1.21,1.52,1.82,2.29.52.68,1.04,1.35,1.57,2.02.38.48.75.96,1.11,1.43,1.19,1.58,2.36,3.15,3.49,4.74,1.02,1.41,2.03,2.83,3.01,4.24.95,1.39,1.88,2.79,2.78,4.19.71,1.07,1.4,2.15,2.09,3.23.46.74.93,1.5,1.4,2.23.05.09.09.16.14.24.03.05.06.11.09.16.85,1.37,1.68,2.74,2.5,4.13,1.23,2.08,2.43,4.18,3.59,6.3.39.7.78,1.41,1.16,2.12s.76,1.42,1.14,2.13c.75,1.43,1.49,2.87,2.21,4.31,1.09,2.17,2.14,4.36,3.16,6.56,1.03,2.21,2.02,4.43,2.97,6.67,5.43,12.68,9.81,25.92,13.02,39.61.12.47.23.95.35,1.43.19.78.37,1.55.54,2.32,2.66,11.55,4.27,22.12,5.24,31.23-.2-.15-.4-.3-.59-.45Zm.88,16.6c0-.07,0-.14-.01-.22h.01v.22Zm.89-.2c-.03-.73-.06-1.49-.1-2.26.05.78.08,1.53.11,2.26.01.32.03.63.03.94,0-.31-.02-.62-.04-.94Zm.11,3.02v-.09c.1.03.19.06.28.09h-.28Z"/>
  <path class="cls-1" d="m768.82,534.39v.22c0-.07,0-.14-.01-.22h.01Z"/>
  <path class="cls-1" d="m306.73,432.8c-.2.42-.4.85-.59,1.28-.22.48-.44.97-.66,1.45-.08.18-.16.37-.24.55-.14.3-.27.61-.41.92-.22.49-.44.99-.65,1.48-4.63,10.22-8.43,20.3-11.48,29.99.04-.15.08-.29.13-.44.1-.36.22-.72.33-1.08h0c.37-1.19.75-2.36,1.13-3.52.26-.79.52-1.58.79-2.37.29-.87.59-1.73.89-2.59.18-.52.37-1.05.56-1.57.26-.72.53-1.45.8-2.17.16-.45.33-.9.51-1.34.34-.93.69-1.85,1.05-2.76.23-.57.45-1.15.69-1.72.22-.57.46-1.14.69-1.71.47-1.14.94-2.27,1.42-3.4,1.59-3.72,3.27-7.38,5.04-11Z"/>
  <path class="cls-1" d="m618.37,314.42s-.09-.03-.14-.05c-.02-.02-.04-.03-.06-.03.07.01.14.04.2.08Z"/>
  <path class="cls-1" d="m619.49,314.89h-.02s-.03-.02-.05-.03c.02,0,.04.02.07.03Z"/>
  <path class="cls-1" d="m619.74,315s-.05-.02-.08-.03c-.04-.03-.09-.05-.13-.06.07.03.14.05.21.09Z"/>
  <path class="cls-1" d="m620.88,315.47c-.13-.05-.26-.1-.39-.15-.03-.01-.06-.03-.1-.04-.08-.04-.16-.07-.25-.11-.13-.06-.27-.12-.4-.17.39.14.76.31,1.14.47Z"/>
  <path class="cls-1" d="m623.13,316.49c-.62-.28-1.23-.55-1.85-.82.49.21.98.42,1.47.64.13.06.25.12.38.18Z"/>
  <path class="cls-1" d="m762.4,483.48c-5.31-21.68-14.29-46.49-29.41-71.25-.11-.2-.22-.39-.34-.58.85,1.37,1.68,2.74,2.5,4.13,1.22,2.08,2.42,4.18,3.59,6.3.39.7.78,1.41,1.16,2.12s.76,1.42,1.14,2.13c.75,1.43,1.49,2.87,2.21,4.31,1.09,2.17,2.14,4.36,3.16,6.56,1.03,2.21,2.02,4.43,2.97,6.67,5.43,12.68,9.81,25.92,13.02,39.61Z"/>
  <path class="cls-1" d="m619.52,314.91s-.02-.01-.03-.01h0s.02,0,.03.01Z"/>
  <path class="cls-1" d="m623.13,316.49c-.62-.28-1.23-.55-1.85-.82.49.21.98.42,1.47.64.13.06.25.12.38.18Z"/>
  <path class="cls-1" d="m691.38,361.36h0s-.01,0-.02-.01c.01,0,.01.01.02.01Z"/>
  <path class="cls-1" d="m639.18,430.68c-.2-.07-.37-.17-.54-.26.17-.01.34-.04.51-.07.01.1.02.21.03.33Z"/>
  <path class="cls-1" d="m610.41,418.87l-.05.19-.07-.14s.08-.04.12-.05Z"/>
  <path class="cls-1" d="m631.03,426.68c-.08.58-.17,1.16-.26,1.73.01-.34.03-.68.1-1.03.04-.24.09-.48.16-.7Z"/>
  <path class="cls-1" d="m692.51,466.05s0,0,0,0c.02-.06.05-.13.07-.19h0c-.02.06-.05.13-.07.19Z"/>
  <path class="cls-1" d="m691.38,361.36h0s-.01,0-.02-.01c.01,0,.01.01.02.01Z"/>
  <path class="cls-1" d="m698.6,366.07c-.9-.14-1.8-.28-2.69-.42h-.01c-.12-.11-.23-.23-.34-.34,0,0-.02-.01-.03-.02-.69-.67-1.36-1.32-2.05-1.98-.21-.2-.43-.4-.65-.6-.41-.39-.85-.79-1.29-1.21-.05-.04-.1-.08-.14-.12,2.18.97,4.27,2.15,6.23,3.53.39.27.92.46.97,1.16Z"/>
  <path class="cls-1" d="m677.32,340.39c-.24.59-.67.73-1.01.98-.35.26-.74.49-1.11.73-.38.23-.75.47-1.12.72-.42.27-.84.54-1.26.81-.37.25-.74.49-1.12.74-.11.07-.24.15-.36.23-1.09-.81-2.18-1.61-3.28-2.41,1.11-.4,2.25-.75,3.42-1.04,1.56-.38,3.13-.72,4.75-.76h1.09Z"/>
  <path class="cls-1" d="m675.41,345.44c-.55.44-1.1.74-1.63,1.01h-.01c-.34-.27-.69-.53-1.04-.8.06-.01.12-.01.19-.02.38-.06.76-.15,1.15-.18.36-.03.72-.01,1.34-.01Z"/>
  <path class="cls-1" d="m605.88,417.67h0c-.31-.3-.62-.6-.92-.91.31.31.62.61.92.91Z"/>
  <path class="cls-1" d="m681.9,523.69c-.04.06-.09.11-.14.16-.04-.02-.08-.04-.13-.06.09-.03.17-.06.27-.1Z"/>
  <path class="cls-1" d="m605.88,417.67h0c-.28.91-.58,1.81-.99,2.73-.18-.39-.35-.61-.38-.85-.19-1.23-.35-2.47-.46-3.71.3.31.61.62.91.92.31.31.62.61.92.91Z"/>
  <path class="cls-1" d="m671.34,344.6c-.07.05-.15.1-.23.15-1.09-.8-2.22-1.62-3.38-2.44.11-.04.22-.08.33-.12,1.1.8,2.19,1.6,3.28,2.41Z"/>
  <path class="cls-1" d="m673.77,346.44c-.08.04-.15.09-.23.12-.38-.28-.76-.57-1.15-.85h.02c.11-.02.22-.04.32-.06.35.27.7.53,1.04.79Z"/>
  <path class="cls-1" d="m590.4,702.21c-.02.06-.04.12-.07.17-.01,0-.01.01-.01.01-.01.02-.02.04-.03.06.14-.42.21-.85.14-1.3-.03-.18-.05-.37-.27-.42-.05.04-.09.06-.1.09h0s.01-.03.02-.04h0s.01-.04.02-.05h0c.03-.07.06-.16.1-.26.01-.03.05-.04.11-.09.21.05.23.25.26.42.08.49.01.96-.17,1.41Z"/>
  <path class="cls-1" d="m687.21,726.72s0,0,0,0c0,0-.01-.01-.02-.02,0,0,.02.02.02.02Z"/>
  <path class="cls-1" d="m364.72,726.6s-.03.01-.05.02c-.03.01-.07.02-.1.02.03-.01.06-.02.09-.03.02-.01.04-.01.06-.01Z"/>
  <path class="cls-1" d="m364.76,726.59s-.01,0-.02.01h0s.02-.01.02-.01Z"/>
  <path class="cls-1" d="m687.79,726.65s.02,0,.02-.02c.01-.02.02-.04.03-.07-.01.02-.02.04-.04.06,0,0-.01.02-.02.02Z"/>
  <path class="cls-1" d="m680.62,714.05c1.63-1.57,3.24-3.16,4.89-4.72.31-.3.73-.49,1.22-.59-.64,1.36-1.77,2.28-2.66,3.4-.91,1.14-1.95,2.18-2.62,3.53,1.5.49,2.25.61,3.41.38,2.66-.53,5.07-1.6,7.03-3.53,3.39-3.33,4.75-7.57,5.55-12.09-1.51-.78-2.9-.36-4.23-.23-3.8.39-7.3,1.63-10.18,4.25-2.98,2.7-4.14,6.07-3.85,9.92.81.47,1.1,0,1.43-.32Z"/>
  <path class="cls-1" d="m687.26,726.68s-.02.01-.03.02-.02.01-.02.02h-.01s-.01-.01-.01-.02h-.01s-.02-.03-.03-.04c-.01,0-.02-.01-.02-.01.02,0,.04,0,.06.01s.05.01.07.02Z"/>
  <path class="cls-1" d="m373.62,718.84c.6.2,1.29.13,2.24.21-1.22-2.9-2.31-5.5-3.45-8.23,1.47,1.06,1.68,1.31,2.84,3.57.71,1.38,1.38,2.77,2.03,4.1.97-.04,1.09-.71,1.25-1.21.76-2.34.64-4.7-.25-6.95-.57-1.44-1.3-2.9-2.27-4.1-2.76-3.39-6.39-5.41-10.87-6.33-.19.67-.42,1.2-.47,1.74-.29,3.18.06,6.31,1.13,9.31,1.36,3.83,3.93,6.55,7.83,7.88Z"/>
  <path class="cls-1" d="m664.01,710.61c-.04.2-.07.41-.1.61v.03h-.03c.03-.15.06-.3.09-.44.01-.07.03-.13.04-.2Z"/>
  <path class="cls-1" d="m364.86,726.55s-.04.02-.05.02c-.02.01-.03.02-.05.02h-.02s-.02.01-.02.01c-.02,0-.04,0-.06.01-.03,0-.06.02-.09.03-.01.01-.03.01-.05.01.01,0,.02-.01.03-.02,0,0,.02-.01.04-.01.02,0,.03-.02.05-.03.07-.03.22-.04.22-.04Z"/>
  <path class="cls-1" d="m364.58,726.64s0,0,0,0c.03,0,.06-.02.09-.03-.03,0-.06.02-.09.03Z"/>
  <path class="cls-1" d="m449.6,682.48c-.04-.26-.19-.38-.41-.46-.45-.17-.89-.35-1.33-.52-.9-.36-1.8-.71-2.75-1.09,0,0-.04-3.01-.04-3.09,0-.07,0-.13,0-.2,0-.07-.01-.28-.02-.31,0,0,0,0,0,0-.03-1.22-.02-2.41.18-3.6.09-.56.16-1.12.23-1.67.04-.3,0-.59-.3-.75-.29-.15-.59-.07-.81.12-.54.46-.81.84-.81.84-.96,1.67-1.33,2.59-1.33,2.59-.62,1.55-.93,2.32-1.27,3.06-.33.71-.67,1.41-1.01,2.5-.12.38-.2.69-.25.9,3.43,1.35,6.8,2.69,10.3,4.01-.14-.85-.26-1.59-.37-2.33Z"/>
  <path class="cls-1" d="m590.25,702.55c-.08.22-.17.43-.27.63.11-.2.2-.41.28-.62,0-.02.01-.03.01-.05-.01.01-.02.03-.02.04Zm-.17-1.78h.01s.01-.02.01-.04c-.01,0-.02.03-.02.04Zm-1.3,4.05c-.14.15-.28.29-.42.43.15-.14.29-.28.43-.43.31-.33.6-.68.85-1.05-.26.37-.54.72-.86,1.05Zm-3.79,2.85c-.34.19-.69.38-1.04.56.35-.18.69-.36,1.04-.55.52-.29,1.03-.6,1.52-.94-.49.33-.99.64-1.52.93Zm-8.83,3.16c-2.33.47-4.68.73-7.05.83-.25.02-.5.03-.75.03.25,0,.49-.01.74-.02,2.38-.11,4.73-.36,7.07-.83.29-.06.58-.12.86-.19-.29.06-.58.12-.87.18Zm-32.2.12s.01,0,.02.01h0s-.02-.01-.02-.01Zm-80.25-18.71c-.2,0-.4,0-.6.01h.6c.37.01.75-.01,1.12-.04-.38.02-.75.04-1.12.03Z"/>
  <path class="cls-1" d="m577.03,710.65c-.28.07-.57.13-.86.19-2.34.47-4.69.72-7.07.83-.25,0-.49.02-.74.02.25,0,.5-.01.75-.03,2.37-.1,4.72-.36,7.05-.83.29-.06.58-.12.87-.18Z"/>
  <path class="cls-1" d="m586.51,706.74c-.49.34-1,.65-1.52.94-.35.19-.69.37-1.04.55.35-.18.7-.37,1.04-.56.53-.29,1.03-.6,1.52-.93Z"/>
  <path class="cls-1" d="m589.64,703.77c-.25.37-.54.72-.85,1.05-.14.15-.28.29-.43.43.14-.14.28-.28.42-.43.32-.33.6-.68.86-1.05Z"/>
  <path class="cls-1" d="m590.27,702.51s-.01.03-.01.05c-.08.21-.17.42-.28.62.1-.2.19-.41.27-.63,0,0,.01-.03.02-.04Z"/>
  <path class="cls-1" d="m543.98,710.95h-.02.02Z"/>
  <path class="cls-1" d="m423.87,703.74c.34.31.76.51,1.24.55.32.03.62.13.89.34.91.7,2.02.49,2.68-.36.19-.24.41-.46.65-.66.59-.49,1.23-.72,1.99-.39.16.07.32.11.49.16.85.25,1.7.39,2.57.14.44-.12.86-.3,1.32-.46.03.09.09.2.1.31.04.44.1.89.09,1.33,0,.75-.07,1.5-.09,2.25,0,.19.04.38.07.6.4-.11.58-.37.75-.61.61-.82,1.23-1.64,1.8-2.5.94-1.43,1.89-2.85,2.97-4.18.39-.48.6-1.01.69-1.61.25-1.74.97-3.26,2.23-4.51.38-.37.75-.75,1.11-1.14.56-.6,1.14-1.18,1.67-1.81.64-.76,1.31-1.49,2.13-2.06.13-.09.26-.25.29-.39.22-1.02.42-2.04.42-3.14-2.97-1.17-5.94-2.35-8.93-3.52-.2.35-.37.66-.57,1-.64-.56-1.11-1.18-1.48-1.87-1-1.86-1.52-3.87-1.81-5.94-.19-1.33-.06-2.66.16-3.98.09-.54.17-1.09.16-1.63-.01-.63-.56-.9-1.09-.53-.26.18-.48.43-.67.69-.48.65-.8,1.39-1.03,2.16-.95,3.18-1.01,6.4-.39,9.63.1.53.15.98-.2,1.42-.11.14-.18.34-.21.52-.05.33-.25.48-.53.63-.73.38-1.42.82-2.03,1.38-1.06.97-1.67,2.2-1.96,3.58-.25,1.21-.77,2.24-1.54,3.19-1.01,1.25-2.01,2.51-2.96,3.81-.86,1.19-1.67,2.42-2.46,3.65-.59.91-.49,1.83.19,2.66.39.47.83.9,1.29,1.32Z"/>
  <path class="cls-1" d="m462.04,692.22c1.28-.01,2.57.03,3.83-.19.1-.02.19-.01.29,0h0s.01-.07.02-.11c-.93-.52-1.94-.86-2.93-1.25-1-.4-2-.79-2.99-1.18-.99-.39-1.98-.78-3-1.18-.39,1-.75,1.94-1.15,2.95.62.45,1.23.88,1.84,1.32.04.03.09.04.13.06.79-.11,1.58-.24,2.37-.34.53-.06,1.06-.07,1.59-.07Z"/>
  <path class="cls-1" d="m466.16,692.04h0c-.1.04-.2.1-.3.1-.33.02-.68.05-1.01.07h-.02c-.37.03-.75.05-1.12.04h-.6c-.38,0-.76,0-1.15.02-.28.01-.56.02-.85.04-.21.02-.43.03-.64.06-.11.01-.21.02-.32.04-.29.03-.57.07-.86.12-.24.04-.48.09-.72.15-.18.05-.34.02-.49-.04.79-.12,1.57-.24,2.37-.34.53-.07,1.05-.08,1.58-.08,1.29-.01,2.57.03,3.84-.18.04-.01.08-.01.12-.01.05,0,.11,0,.17.01Z"/>
  <polygon class="cls-1" points="687.27 726.68 687.27 726.68 687.27 726.68 687.27 726.68 687.27 726.68"/>
  <path class="cls-1" d="m724.68,773.59c-.24.21-.48.41-.71.61.29.01.59.02.88.04.01-.28-.05-.49-.17-.65Z"/>
  <path class="cls-1" d="m662.2,738.02c1.17-4.85-.45-8.74-4.13-11.88-2.54-2.18-5.57-3.32-8.81-3.92-.18-.03-.37.1-.76.21-.53,4.64-.14,9.16,2.7,13.17,1.9,2.71,4.56,4.22,8.13,4.58-.3-2.75-2.09-4.72-2.93-7.71.68.63.97.82,1.15,1.07,1.49,2.11,2.59,4.4,3.26,6.92.1.35.19.71.28,1.06.47-.3.93-.61,1.4-.95-.13-.38-.26-.76-.38-1.15-.14-.41-.02-.95.09-1.4Zm-297.61-11.41s-.03.02-.04.02c0,0,.02-.01.04-.01.02,0,.03-.02.05-.03-.01.01-.03.01-.05.02Zm.15-.02h.02-.02Zm.12-.03h0s-.02.01,0,0Zm124.39,15.15c-.02.06-.04.12-.06.18.02-.06.05-.12.07-.18h-.01Zm52.65.98h-.01s.01.03.03.04c-.01-.01-.01-.03-.02-.04Zm122.07-31.88c-.02.14-.04.27-.06.41.03-.2.06-.41.1-.61-.01.07-.03.13-.04.2Zm23.3,15.86h0s0,0,.01,0h-.01Z"/>
  <path class="cls-1" d="m687.19,726.66s-.04-.01-.06-.01h0s.04,0,.06.01Z"/>
  <path class="cls-1" d="m664.02,710.59v.02s0,0,0,0c0,0,0-.01,0-.02,0,0,0,0,0,0Z"/>
  <path class="cls-1" d="m364.64,726.59s-.03.02-.05.03c-.02,0-.03.01-.04.01,0,0,.03-.01.04-.02.02-.01.04-.01.05-.02Z"/>
  <path class="cls-1" d="m364.47,726.67h.01s0,0-.01,0Z"/>
  <path class="cls-1" d="m364.47,726.67s0,0,0,0h0Z"/>
  <path class="cls-1" d="m489.26,741.71c-.02.06-.05.12-.07.18.02-.06.04-.12.06-.18h.01Z"/>
  <path class="cls-1" d="m542.75,742.72s-.02.09-.04.13c-.01.02-.02.04-.04.06-.01.02-.03.04-.04.06-.03.04-.06.07-.11.09-.04.02-.09.04-.15.04-.24,0-.37-.17-.45-.37-.02-.01-.02-.03-.03-.04h.01c.29.01.56.02.85.03Z"/>
  <path class="cls-1" d="m449.97,752.21s.04,0,.06-.01c-.02,0-.04,0-.06.01h0Z"/>
  <path class="cls-1" d="m724.42,685.74c-2.87-.45-4.51.17-6.2,2.42-8.4,11.49-18.05,21.81-28.66,31.18-1.92,1.7-3.88,3.38-5.87,5.02-.02,0-.03.03-.05.04-2.35,2-4.74,3.97-7.16,5.87-1.79,1.44-3.62,2.84-5.45,4.2,1.83-6.22,5.04-11.76,8.34-17.2-.53-.62-.83-.24-1.09.01-2.09,1.99-3.67,4.37-5.12,6.84-.79,1.35-1.55,2.72-2.29,4.01-.7.04-.71-.36-.75-.75-.18-1.88,0-3.65.83-5.45,2.64-5.7,1.8-11.16-1.63-16.27-2.54-3.78-6.07-6.41-10.17-8.32-.17-.08-.38-.12-.57-.15-.19-.02-.39,0-.79,0-.34,1.38-.77,2.79-1.02,4.23-.65,3.79-1.17,7.59-.25,11.45,1.23,5.07,3.92,8.98,8.73,11.26.26.12.56.17.84.23.08.02.18-.04.28-.07.53-2.76-.69-9.14-2.49-13.05.03-.14.06-.29.09-.43.01-.07.03-.13.04-.2-.04.2-.07.41-.1.61v.04c.27-.04.69-.2.8-.08.31.36.54.82.73,1.26,2.25,5.07,3.01,10.38,2.79,15.89-.12,3.07-.58,6.1-1.2,9.07-1.5,1.09-3.02,2.15-4.54,3.17-.47.34-.93.65-1.4.95-2.99,2.02-6.03,3.96-9.11,5.83-1.1,1.29-2.55,2.08-4.1,2.45t-.02.01c-.51.3-1.03.59-1.54.88-2.67-.44-5.68-.89-9.21-1.38.13-.06.24-.12.37-.18.69-.36.88-.91.6-1.64-.09-.18-.19-.36-.3-.53-.23-.35-.47-.68-.71-1.01-.43-.6-.65-1.25-.64-2.01.02-1.52.01-3.05-.01-4.56-.02-1.94-.12-3.86-.38-5.78-.28-1.92-1.02-3.61-2.44-4.96-.62-.59-1.21-1.21-1.82-1.81-.26-.26-.4-.54-.3-.92.06-.26.07-.54.09-.81.12-1.42.08-2.83-.26-4.23-.2-.82-.35-1.67-.41-2.51-.11-1.58-.15-3.15-.17-4.72-.02-1.66-.3-3.26-.68-4.86-.09-.35-.28-.69-.09-1.08.04-.07-.02-.2-.05-.3-.08-.23-.18-.47-.28-.71-.47-1.08-.96-2.15-1.4-3.24-.87-2.17-1.4-4.43-1.96-6.69-.72-2.96-1.41-5.94-2.15-8.9-.64-2.55-1.56-4.98-2.97-7.22-1.35-2.19-3.06-3.94-5.59-4.72-.33-.1-.55-.34-.75-.59-.95-1.12-1.88-2.26-2.84-3.41.83-.23,1.24-.88,1.52-1.61.28-.73.34-1.47.21-2.23-.33-2.03-1.47-3.46-3.35-4.27-1.96-.84-4-.95-6.08-.45-1.63.41-3.01,1.26-4.14,2.51-.61.68-1.03,1.46-1.15,2.35-.05.39-.04.81.1,1.15.19.47.33.94.48,1.4.15.47.45.8.93.95.13.04.26.08.41.13.11.35.27.71.33,1.07.1.61.31,1.09,1,1.13.04.23.08.41.1.6.02.25.03.51.05.77.02.32.03.65.08.97.04.32.22.42.54.35.15-.03.28-.08.41-.12.26.56.3.57.81.31.05-.02.11-.03.13-.04.38.21.68.39.98.56.15.13.25.33.36.51.49.82,1.32.93,2.01.25.12-.11.23-.23.35-.36.53.49,1.01.95,1.54,1.44-.78.85-1.07,1.9-1.26,2.99-.15.73-.26,1.48-.41,2.21-.05.23-.13.47-.27.65-1.07,1.37-2.16,2.73-3,4.27-.12.22-.3.35-.56.38-.37.05-.74.15-1.11.24-1.92.42-3.68,1.23-5.32,2.32-1.35.89-2.81,1.52-4.43,1.74-.72.1-1.42.25-2.05.62-.73.44-1.5.77-2.3.99-.84.24-1.57.66-2.14,1.32-.23.28-.44.57-.64.86-.15.21-.25.45-.36.66-.25.04-.47.07-.69.1-1.5.24-2.96.66-4.4,1.13-4.96,1.58-9.96,3.01-15.12,3.78-1.63.24-3.24.47-4.87.66-1.62.2-3.22.36-4.84.54-1.65.17-3.29.33-4.94.48-1.38.12-2.77.22-4.15.31-.46.03-.93.04-1.42,0,.01-.2.02-.34.04-.48.2-1.95.14-3.88-.35-5.79-.62-2.39-1.8-4.42-3.81-5.92-1.47-1.1-3.1-1.92-4.82-2.57-2.79-1.05-5.59-2.06-8.4-3.08-.44-.17-.89-.27-1.35-.2s-.91.18-1.34.34c-3.74,1.39-7.57,2.39-11.49,3.11-2.36.42-4.74.74-7.14,1.07-1.83.23-3.69.42-5.54.59-1.96.16-3.92.32-5.88.4-2.29.09-4.58.14-6.85-.29-.12-.02-.23-.04-.35-.07-.11-.02-.23-.05-.34-.07.51-.06,1.01,0,1.49.01,1.47.04,2.94-.01,4.41-.17,1.32-.13,2.65-.23,3.97-.35,1.56-.16,3.1-.32,4.65-.49,1.01-.11,2.03-.22,3.04-.34,1.41-.18,2.81-.36,4.21-.58,1.74-.26,3.47-.54,5.2-.86,1.28-.23,2.54-.52,3.81-.8.48-.1.97-.23,1.5-.36-.14-.21-.22-.35-.32-.5-.74-1.1-1.62-2.06-2.59-2.96-3.13-2.86-6.73-5.03-10.45-7-.19-.1-.42-.14-.63-.12-1.19.11-2.37.24-3.57.39-1.96.27-3.94.55-5.91.86-2.5.4-4.99.82-7.48,1.24-1.99.33-4,.5-6.01.55-3.37.09-6.74.13-10.1-.27-1.08-.14-2.15-.37-3.19-.71-.42-.13-.71-.39-.86-.81-.1-.27-.21-.54-.3-.82-.31-.89-.71-1.73-1.34-2.46-1.05-1.25-2.39-1.79-4.02-1.46-2.13.41-3.76,1.67-5.27,3.13.65,3.21.43,6.35-.33,9.51,3.69,1.45,7.36,2.91,11.03,4.34.42-.55.79-1.04,1.18-1.51,1.09-1.35,2.23-2.65,3.67-3.62,1.7-1.15,3.53-1.78,5.61-1.52,1.64.2,2.85,1.02,3.59,2.47.33.64.53,1.34.77,2.01.3.87.74,1.65,1.48,2.23.06.03.1.08.14.14-.15,0-.27-.04-.37-.11-.81-.5-1.39-1.21-1.76-2.09-.24-.59-.44-1.22-.72-1.8-.47-.96-1.2-1.64-2.22-2.01-1.34-.49-2.65-.38-3.96.08-1.33.47-2.49,1.21-3.5,2.19-1.42,1.37-2.79,2.81-4.21,4.25-.11.03-.3.03-.45.11-.71.34-1.31.81-1.8,1.42-.71.88-1.22,1.87-1.55,2.98-.39-.29-.76-.56-1.12-.83.98-.96,2.68-3.32,2.82-3.91h-.07c-.1.04-.2.1-.3.1-.33.02-.68.05-1.01.07h-.02c-.37.03-.75.05-1.12.04h-.6c-.38,0-.76,0-1.15.02-.28.01-.56.02-.85.04-.21.02-.43.03-.64.06-.11.01-.21.02-.32.04-.29.03-.57.07-.86.12-.24.04-.48.09-.72.15-.18.05-.34.02-.49-.04h-.02c-.08.02-.16.03-.24.04-.13.02-.28.01-.38-.06-.57-.43-1.13-.88-1.69-1.32.12-.37.21-.69.31-1.01.12-.35.24-.69.35-1.03,1.21-3.79,1.57-7.65.87-11.59-.38-2.06-1.11-3.97-2.3-5.71-.75-1.08-1.63-2.06-2.78-2.75-.29-.18-.61-.29-.93-.4-.19-.06-.39-.02-.51.16-.13.2-.09.4.03.58.13.18.28.34.44.51.78.8,1.47,1.66,2.02,2.63,1.29,2.3,1.81,4.79,1.62,7.41-.07.92-.29,1.84-.46,2.77-.06.24-.19.48-.29.72-.05.01-.09.01-.13.01-.11-.17-.25-.35-.33-.54-.08-.2-.12-.42-.18-.64-.47-1.91-1.18-3.71-2.23-5.37-.94-1.44-2.06-2.69-3.49-3.64-.24-.18-.52-.33-.8-.44-.41-.15-.7.04-.72.47-.01.25.05.51.16.73.18.43.41.83.64,1.22.58,1.02,1.16,2.03,1.74,3.03.05.1.1.21.19.37.05.07.31.55.36.68.01.01.07.11.09.16.3.77.66,1.52.88,2.29.62,2.16.39,4.3-.22,6.43-.06.15-.21.29-.35.41-.39.4-.87.74-1.2,1.17-.83,1.1-1.74,2.12-2.69,3.1-1.37,1.43-2.52,3.02-3.14,4.92-.07.2-.16.39-.23.57-.04.12-.07.24-.11.36l.05.02c.15-.17.3-.32.44-.49,0,.14-.05.25-.11.34-1.02,1.52-2.02,3.06-3.03,4.57-.83,1.24-1.75,2.4-2.82,3.45-.43.44-.87.88-1.28,1.33-.96,1.07-.48,2.67.57,3.28.27.16.55.28.83.4.31.11.54.28.66.59.12.27.33.42.62.47.57.11,1.14.23,1.71.35.78.16,1.53.09,2.19-.42.24-.19.51-.35.79-.48.16-.07.4-.1.58-.04.57.19,1.11.45,1.67.65.68.23,1.19.66,1.55,1.26.25.42.51.85.77,1.27.62,1.02,1.44,1.83,2.46,2.42.21.11.42.24.65.37.62.27,1.32.54,2.09.78-.61.9-2.84,5.36-3.31,5.86-.75.84-1.02,1.82-.94,2.94.04.52.03,1.06-.07,1.58-.28,1.44-.56,2.88-.96,4.3-.46,1.74-1.04,3.46-1.58,5.19-.15.45-.21.88-.13,1.36.05.25-.02.56-.13.79-.23.43-.5.85-.8,1.24-.54.73-.85,1.5-.87,2.4-3.24.39-5.99.77-8.12,1.09-1.37.12-2.75.24-4.12.37-.64-.61-.36-1.32-.18-1.94.83-2.96,2.03-5.77,3.8-8.3.43-.61.82-1.25,1.34-2.04-3.2.8-4.35,1.93-8.37,8.03-.76-.04-.63-.61-.61-1.06.18-3.87,1.01-7.61,2.21-11.29.38-1.2.81-2.4,1.21-3.56-.5-.45-.76-.1-1.01.19-2.24,2.58-3.61,5.63-4.67,8.83-.34,1-.69,1.99-1.24,3.59-.87-2.9-.97-5.31-1.66-7.59-.74-2.45-1.48-4.9-2.4-7.3-.87-2.27-2.03-4.42-4.16-5.99.69,2.54,1.45,5.07,2.02,7.64.56,2.51,1.02,5.04,1.38,7.57.38,2.63.57,5.28.84,7.9-.85.24-.97-.34-1.15-.71-1.2-2.51-2.67-4.83-4.43-6.98-1.5-1.84-3.21-3.46-5.21-4.68-.6.35-.36.68-.16,1.01,1.07,1.78,2.17,3.53,3.2,5.32,1.39,2.41,2.44,4.95,3.24,7.61.11.35.12.73.25,1.56-2.92-2.69-5.51-5.15-9.04-6.1-.73-.2-1.48-.24-2.94-.45,1.45,1.19,2.37,1.89,3.22,2.68.87.79,1.71,1.64,2.46,2.54.71.82,1.35,1.72,1.91,2.64.6.99,1.31,1.98,1.46,3.35-.63.21-1.24.52-1.88.62-2.53.37-5.04.77-7.56,1.2-1.78-.99-3.57-2.03-5.29-3.15,0,0-1.21-.83-1.25-.74-2.47-1.68-4.97-3.44-7.51-5.26-.03-.03-.05-.04-.07-.05-1.39-.95-2.77-1.89-4.14-2.86.25-3.78,1-7.48,2.23-11.1.79-2.33,1.85-4.56,3.77-6.56.15,1.24-.57,1.97-.86,2.81-.29.83-.7,1.62-1.01,2.45-.35.93-.69,1.86-.97,2.8-.24.83-.41,1.68-.6,2.5.89.55,1.65.28,2.39.03,3.34-1.15,5.77-3.38,7.29-6.54.63-1.31,1.11-2.74,1.43-4.17.8-3.62.64-7.26-.03-10.87-.05-.27-.26-.52-.38-.76-7.86.92-14.44,7.54-15,15.2-.1,1.45.01,3.04.51,4.36.61,1.63.54,3.06-.05,4.57-.11.26-.21.53-.43,1.07-.33-.57-.62-.94-.77-1.36-1.28-3.41-2.48-6.85-3.81-10.25-.41-1.06-.9-2.16-2.11-3.42.14,1.06.17,1.61.3,2.12,1.17,4.38,2.37,8.75,3.52,13.14.08.27.14.55.2.82-1.54-1.15-3.08-2.31-4.59-3.5-4.91-3.8-9.67-7.8-14.26-11.97-3.12-2.82-6.15-5.72-9.12-8.71-.03-.02-.05-.05-.08-.07-5.65-5.36-10.9-10.67-15.75-15.9-2.78-2.68-5.54-5.35-8.31-8.03-1.31-.02-3.29-.01-5.69.2-4.83.41-7.91,1.3-11.56,2.1-2.87.63-7.06,1.41-12.34,1.9.66.92,1.79,2.47,3.17,4.39,17.18,23.88,37.24,44.64,60.58,61.99,2.6,1.94,5.24,3.82,7.92,5.67,1.09.83,2.22,1.56,3.36,2.34.1.06.19.12.3.2,2.03,1.34,4.11,2.7,6.26,4.05,2.29,1.44,4.6,2.85,6.92,4.2,1.04.63,2.09,1.24,3.15,1.84,21.04,12.01,43.42,21.11,66.99,27.31,1.74.45,4,1.58,4.72,3.04,15.56,29.8,30.88,59.72,46.26,89.57,5.3,10.31,10.59,20.57,16.39,31.77,1.97-3.66,3.55-6.48,5.02-9.29,18.98-36.96,37.91-73.91,56.84-110.92,1.13-2.08,2.42-3.26,4.9-3.95,24.15-6.67,46.68-15.85,67.45-27.61l3.05-1.76c4.1-2.39,8.13-4.88,12.08-7.47.42-.28.84-.56,1.26-.84.93-.62,1.85-1.24,2.74-1.86,6.46-4.39,12.73-9.06,18.8-14.01,16.31-13.28,31.26-28.62,44.81-46.1,3.49-4.56,6.64-9.35,10.25-14.43-9.81-1.18-18.99-2.13-28.05-3.6Zm-270.33,73.09c-8.16,1.44-16.31,2.79-24.45,4.31-.35-.14-.69-.3-1.03-.44-.17.03-.35.07-.51.11-2.41-1.06-4.81-2.13-7.15-3.22.46-.04.92-.08,1.39-.11,4.03-.29,8.06-.59,12.1-.77,6.21-.28,12.42-.47,18.63-.69.58-.02,1.15.04,1.81.42-.27.13-.51.34-.79.39Zm16.28-21.79c-.09.45-.25.88-.34,1.34-.05.22-.14.36-.36.43-.34.13-.63.34-.8.68-.33.68-.84,1.2-1.4,1.68-.42.39-.71.85-1.01,1.35-3.7.25-7.59.55-11.66.95-1.82.17-3.58.35-5.24.53.07-.75.18-1.54-.28-2.24-.07-.1-.11-.21-.13-.33-.07-.36.12-.59.48-.63.14-.02.3-.03.43-.04.11-.45.07-.98-.15-1.58-.08-.21-.09-.41-.04-.64.3-1.28.56-2.57.88-3.84.34-1.39.72-2.78,1.11-4.16.27-.97.77-1.83,1.54-2.48.98-.84,3.97-5.98,4.98-6.78.12-.1.25-.21.39-.3.12.21.2.44.22.74,0,.09.02.18.05.25.15.59.36,1.18.84,1.56.48.4.64.89.65,1.47,0,.17.02.34.04.52.11.87.3,1.71.72,2.49.72,1.36,1.81,1.92,3.34,1.7.36-.04.72-.05,1.07-.08.52-.03.93.18,1.29.54.12.13.26.27.39.4.46.42.98.68,1.62.64.39-.03.77-.08,1.19-.12.21,1.51.46,3.01.42,4.54-.02.47-.13.94-.24,1.41Zm2,5.64c-.01.06-.02.11-.04.16.01-.05.02-.1.03-.16.02-.15.04-.3.05-.46-.01.16-.02.31-.04.46Zm.04-.5c.02-.4.03-.79.06-1.19.01-.2.04-.41.11-.6.18-.49.56-.6,1.01-.31.22.14.61.12.85-.07.22-.17.29-.41.21-.68-.03-.11-.08-.23-.13-.33-.18-.49-.45-.93-.52-1.47-.32-2.55-.52-5.1-.5-7.67.01-.22,0-.45,0-.62.31-.12.65-.21.98-.29,2.82-.69,5.39-.06,7.12.61-.23,1.54-.38,2.86-.48,3.85,0,0-.62,6.25.75,7.14h.01s.06.05.11.11c.08.11.11.26.14.41.04.25.07.49.09.74-3.09.08-6.35.19-9.81.37Zm72.73-35.82h.06c.03-.12.05-.23.08-.34.15-.02.31-.04.48-.05,1.5-.1,3-.18,4.5-.32,1.36-.11,2.71-.27,4.08-.4.79-.07,1.6-.13,2.39-.21,1.44-.15,2.88-.31,4.32-.5,1.51-.19,3.02-.39,4.51-.63,1.4-.22,2.8-.48,4.18-.77,3.82-.8,7.57-1.89,11.29-3.08,1.32-.42,2.64-.81,4.01-1.03.16-.02.3-.03.46-.05,0,.06.01.07,0,.09-.03.12-.08.24-.14.37-.02.05-.04.11-.06.17-.02.09-.03.2,0,.27.15.38.45.71.73,1.03.16.19.48.18.69.01.09-.08.16-.18.26-.29.48.15.91.31,1.41.26.25-.02.52.13.78.18.26.04.44.05.59,0,.06-.02.12-.05.17-.1h.01s.05-.06.07-.09c.02-.02.03-.04.05-.06h0s.01-.03.02-.04h0s.01-.04.02-.05h0c.03-.07.06-.16.1-.26.01-.03.05-.04.11-.09.21.05.23.25.26.42.08.49.01.96-.17,1.41-.02.06-.04.12-.07.17-.01,0-.01.01-.01.01-.01.02-.02.04-.03.06s-.01.04-.02.06c0,.02-.01.03-.01.05-.08.21-.17.42-.28.62-.1.2-.21.4-.34.59-.25.37-.54.72-.85,1.05-.14.15-.28.29-.43.43-.29.28-.58.54-.89.78-.31.25-.62.48-.95.71h-.01c-.49.34-1,.65-1.52.94-.35.19-.69.37-1.04.55-.36.17-.71.34-1.07.5-.23.11-.46.21-.7.3-.21.09-.42.17-.63.25-.14.06-.29.12-.44.17-.36.13-.71.26-1.07.37-.45.15-.9.29-1.35.41-.26.07-.53.14-.8.21-.29.07-.57.14-.86.21-.28.07-.57.13-.86.19-2.34.47-4.69.72-7.07.83-.25,0-.49.02-.74.02-.02.01-.04.01-.06.01-.07.01-.14.01-.2,0-.53.03-1.06.05-1.58.06-.07.01-.14.01-.2,0-.01.01-.02.01-.03,0-.25.01-.51.02-.76.02-2.16.05-4.32.05-6.48,0-2.78-.07-5.57-.16-8.34-.45-2.12-.23-4.23-.53-6.35-.8-.07-.01-.13-.03-.21-.05.33-1.37.65-2.73.99-4.12Zm-50.95,30.18c-.62.25-1.17.63-1.7,1.04,0,0-.49.3-1.09.77-1.03.77-1.73,2.26-2.15,3.36h.01c-.02.06-.05.12-.07.18.02-.06.04-.12.06-.18-1.18,0-2.37.01-3.6.04h0c-.11-1.65-.12-3.3-.02-4.95.19-3.69.6-7.36,1.29-10.99.03-.2.11-.32.25-.47.36-.4.73-.82,1.05-1.25.16-.22.33-.32.6-.3,1.12.09,2.26.11,3.37.27,2.52.36,5.01.79,7.53,1.2.11.02.22.07.34.1-.42,2.63-1.14,5.12-2.55,7.38-.84,1.35-1.98,2.44-3.03,3.61-.08.08-.19.15-.29.19Zm2.24,4.57c.13-.24.22-.17.35-.43.17-.41.27-.82.2-1.26-.06-.42.11-.67.5-.82.29-.11.56-.25.84-.38.23-.09.34-.24.35-.5.02-1.08.4-2.08.83-3.04.82-1.82,1.86-3.51,2.95-5.16.76-1.17,1.56-2.32,2.35-3.49.14-.21.28-.38.6-.38,2.47-.01,4.85-.51,7.21-1.17,2.25-.63,4.43-1.48,6.59-2.35.12-.04.22-.08.36-.14.24.57.47,1.12.69,1.67.56,1.39,1.09,2.77,1.66,4.15.24.6.31,1.2.2,1.84-.66,4.36-1.89,8.54-4.01,12.43-4.74-.11-9.65-.2-14.74-.28-2.16-.03-4.51-.08-7.08-.09-.01-.18.02-.38.15-.6Zm27.6,126.7c0,.18-.23.34-.84,1.47-7.39-18.31-14.42-35.88-21.63-53.91,1.46-.23,2.36-.46,3.26-.39,6.42.05,12.9.27,19.33.33,1.68,0,2.65.45,2.53,2.37-.9,16.72-1.75,33.41-2.65,50.13Zm18.73-125.09s-.03.09-.05.13c-.01.02-.02.04-.04.06-.01.02-.03.04-.04.06-.03.04-.06.07-.11.09-.04.02-.09.04-.15.04-.24,0-.37-.17-.45-.37-.02-.01-.02-.03-.03-.04-6.08-.19-12.47-.36-19.24-.52.29-.59.63-1.15.97-1.72.31-.53.67-1.04.96-1.58.39-.71,2.89-4.45,3.06-4.68.44-.6.85-1.23,1.28-1.85.37-.54.83-1.03,1.39-1.35.99-.57,1.19-1.42,1.01-2.46-.18-1.13-.41-2.25-.5-3.39-.09-1.21-.03-2.42-.03-3.63-.01-.15.05-.29.09-.5.82.52,1.61.98,2.37,1.49,1.67,1.1,3.32,2.23,4.99,3.34.32.21.42.44.44.83.03.99.19,1.98.22,2.96.02.82-.04,1.64-.1,2.46-.09,1.05-.2,2.1-.1,3.17.1.95.41,1.83.96,2.62.83,1.2,1.44,2.51,1.87,3.91.11.31.24.6.36.9h.01c.29.01.56.02.85.03.01-.01.01-.02.01-.03.11-.45.22-.9.27-1.36.15-1.44.21-2.89.06-4.34-.14-1.29-.52-2.51-.98-3.7-.36-.92-.78-1.83-1.13-2.75-.31-.81-.64-1.61-.6-2.51,0-.06.01-.12.02-.27.2.18.35.31.49.44,1.81,1.85,3.18,3.98,4.23,6.32.36.83.75,1.65,1.15,2.46.76,1.6,1.05,3.31,1.11,5.06.01.27.01.53.01.82-1.53-.05-3.07-.1-4.63-.14Zm43.03-2.98c-.06.13-.26.21-.41.27-1.76.65-3.52,1.3-5.29,1.93-1.89.68-3.79,1.37-5.7,2.04-6.93-.34-14.47-.67-22.68-.96-.1-.26-.19-.51-.27-.77-.93-2.85-1.56-5.76-1.89-8.74-.23-2-.36-4.02-.33-6.03.02-.84-.29-1.42-.97-1.9-1.01-.71-2-1.44-2.96-2.22-.65-.54-1.23-1.17-1.81-1.81,14.35,5.53,28.79,10.76,43.14,16.32-.29.67-.54,1.28-.83,1.87Zm2.28-5.12c-.1.2-.2.39-.31.62-15.39-5.86-30.75-11.71-46.17-17.58h0s-.01-.01-.01-.01c.4-1.13.8-2.25,1.2-3.36.39-1.12.78-2.22,1.18-3.34h.02c.04-.12.08-.23.12-.34,1,.13,1.96.28,2.91.39,1.4.17,2.79.36,4.18.47,3.29.27,6.59.44,9.88.43,2.52-.01,5.04-.01,7.55-.12,3.85-.18,7.69-.63,11.39-1.82,2.48-.79,4.85-1.85,7-3.33.98-.68,1.89-1.43,2.63-2.36.35-.42.67-.87.92-1.35.04-.08.07-.16.1-.23.01-.01.02-.02.02-.03h0s.01-.02.01-.03c.02-.06.04-.12.06-.17.01-.02.02-.03.02-.05,0-.01.01-.02.01-.03v-.03c.04-.12.07-.24.09-.36.07-.38.06-.78-.07-1.18-.08-.24-.2-.48-.37-.72h.01c.05-.02.1-.04.14-.06.05-.02.09-.05.13-.07-.04-.07-.08-.14-.13-.21.8-.25,1.28-.82,1.66-1.5.21-.36.46-.62.95-.65,1.05-.08,2.1-.24,3.15-.36,1.86-.23,3.74-.39,5.54-.91,2.25-.66,4.21-1.79,5.86-3.44.13-.14.27-.27.4-.4.01,0,.03-.02.08-.04.03.1.08.21.12.31.18.54.33,1.09.58,1.59.34.69.47,1.42.52,2.16.03.55.04,1.1.09,1.64.02.23-.03.39-.16.54-.01.01-.02.01-.02.02-.04.05-.08.1-.13.14-.97.81-1.78,1.76-2.45,2.81-.47.77-.9,1.58-1.33,2.37-.46.82-.89,1.65-1.34,2.47-.52.95-1.28,1.59-2.31,1.93-1.03.34-2.05.74-3.08,1.09-.35.11-.58.32-.74.65-.14.34-.34.66-.52,1-.06.08-.09.14-.09.22v.02c-.01.08,0,.15.03.23.09.22.13.47.13.7-.01.5.32.91.87.8.28-.05.55.03.84.14.32.13.7.12,1.11.19-1.83,5.56-3.7,11.05-5.61,16.54-.01,0-.01-.01-.02-.01-.04.12-.08.24-.12.36-.63-.28-1.2-.54-1.78-.77-.5-.21-1.02-.25-1.56-.22-.06,0-.12.01-.18.02-.11.02-.21.06-.3.11-.09.04-.17.1-.25.17-.06.06-.11.12-.16.19-.05.07-.09.15-.13.23-.7,1.52-1.44,3.02-2.16,4.53Zm21.29-23.57c-.98,1.28-1.94,2.53-2.92,3.8-.37-.34-.8-.55-1.25-.73-.22-.09-.45-.17-.67-.25-.23-.08-.45-.17-.67-.27-.44-.2-.89-.35-1.35-.54.01-.11.03-.22.06-.31.02-.09.06-.18.12-.25h0c.05-.3.2-.51.54-.65.15-.06.29-.14.42-.22.13-.09.25-.18.36-.29.04-.04.08-.08.12-.13.04-.04.07-.08.1-.13.08-.1.14-.2.2-.31.03-.07.07-.15.1-.23.21-.54.59-.93,1.07-1.26,1.1-.79,2.18-1.6,3.26-2.39.14-.11.28-.19.51-.35-.09.69-.15,1.27-.24,1.86-.07.49-.15.97-.22,1.46q-.08.41.31.64c.09.06.18.14.3.2-.07.1-.16.21-.23.3.03.01.06.03.08.05Zm-5.34,8.01c.04.1-.05.26-.1.37-.15.41-.33.79-.48,1.19-.29.74-.32,1.5-.1,2.26.38,1.3.76,2.59,1.12,3.89.06.22.09.47.07.69-.16,2.92-.37,5.84-.52,8.75-.11,2.11-.58,4.12-1.43,6.04-.12.25-.25.49-.38.74-.15.31-.39.55-.7.71-1.29.66-2.59,1.27-3.97,1.67-2.41-.17-4.93-.34-7.55-.51.35-.96.7-1.89,1.05-2.85.47.15.9.28,1.39.44.26-.69.5-1.34.75-2.01.44.17.85.35,1.26.49.96.3,1.74-.14,2.01-1.11.21-.72-.11-1.47-.8-1.81-.29-.14-.6-.23-.9-.35-.18-.07-.37-.15-.56-.23,2.65-7.83,5.29-15.63,7.95-23.49,1.31.43,2.54,1.02,3.87,1.53-.64,1.06-1.23,2.07-1.83,3.07-.1.17-.23.29-.15.52Zm16.6,44.39c-1.07-.19-2.15-.37-3.21-.56-8.07-1.35-16.13-2.72-24.19-4.1-1.24-.22-2.49-.51-3.74-1,.57-.05,1.15-.15,1.71-.13,6.6.31,13.21.61,19.8.97,3.95.2,7.89.45,11.81.75,1.93.15,3.86.33,5.78.52-2.64,1.24-5.28,2.42-7.96,3.55Zm12.28-18.11c-.18.33-.4.64-.66.91-.68.73-1.4,1.43-2.1,2.15-6.5-.79-14.39-1.61-24.2-2.4-.04-.18-.07-.37-.11-.56-.23-1.14-.04-2.2.5-3.22.55-1.04,1.14-2.06,1.64-3.12.88-1.82,1.64-3.69,2.28-5.59.65-1.91.56-3.84.07-5.75-.23-.87-.55-1.69-.84-2.53-.07-.21-.13-.42-.22-.68.54-.07,1-.12,1.47-.2.84-.16,1.67-.33,2.51-.48.2-.04.4-.06.61-.06.99-.01,1.98.01,2.97,0,.31,0,.57.07.8.27.64.54,1.4.84,2.2,1.06.27.09.55.18.82.28.86.32,1.55.84,1.99,1.68.27.51.61.99.88,1.5.31.57.57,1.17.86,1.74.2.39.4.79.68,1.14.75.91,1.8,1.1,2.85.56.14-.06.27-.14.45-.23.1.18.2.36.29.54.6,1.29,1.2,2.6,1.81,3.89.49,1.02,1.04,2.01,1.46,3.05.68,1.69,1,3.47,1.18,5.27.03.26-.07.55-.19.78Zm54.33-18.64s-.02.01-.02.02h-.01l-.02-.02s-.02-.03-.03-.04c-.01,0-.02-.01-.02-.01h0s.04,0,.06.01.05.01.07.02c-.01.01-.02.01-.03.02Z"/>
</svg>